{"glyphs":{"0":{"ha":1701,"x_min":0,"x_max":0,"o":"m 347 0 l 1389 0 l 1563 174 l 1563 1215 l 1215 868 l 1215 347 l 694 347 z m 0 174 l 347 521 l 347 1042 l 868 1042 l 1215 1389 l 174 1389 l 0 1215 l 0 903 z m 0 0 l 174 0 l 1563 1389 l 1389 1389 z "},"1":{"ha":833,"x_min":0,"x_max":0,"o":"m 347 0 l 694 0 l 694 1215 l 347 868 z m 0 1042 l 347 1042 l 694 1389 l 174 1389 l 0 1215 l 0 1164 z "},"2":{"ha":1701,"x_min":0,"x_max":0,"o":"m 0 0 l 1563 0 l 1563 347 l 347 347 z m 0 174 l 694 868 l 174 868 l 0 694 l 0 538 z m 0 1042 l 868 1042 l 1215 1389 l 174 1389 l 0 1215 l 0 1164 z m 521 521 l 1389 521 l 1563 694 l 1563 1215 l 1389 1389 l 1042 1042 l 1215 1042 l 1215 868 l 868 868 z "},"3":{"ha":1701,"x_min":0,"x_max":0,"o":"m 0 0 l 174 0 l 521 347 l 174 347 l 0 174 l 0 122 z m 347 521 l 694 521 l 1042 868 l 521 868 l 347 694 z m 347 0 l 1563 0 l 1563 1215 l 868 521 l 1215 521 l 1215 347 l 694 347 z m 174 1042 l 1215 1042 l 1563 1389 l 0 1389 l 0 1337 l 0 1215 z "},"4":{"ha":1701,"x_min":0,"x_max":0,"o":"m 0 347 l 347 347 l 1389 1389 l 868 1389 l 0 521 l 0 469 z m 1215 0 l 1563 0 l 1563 1389 l 1215 1042 l 1215 694 l 868 694 l 521 347 l 1215 347 z "},"5":{"ha":1701,"x_min":0,"x_max":0,"o":"m 0 0 l 1215 0 l 868 347 l 174 347 l 0 174 l 0 122 z m 1389 0 l 1563 174 l 1563 521 l 1215 868 l 521 868 l 868 521 l 1042 521 l 1215 347 l 1042 347 z m 174 521 l 694 521 l 0 1215 l 0 1059 l 0 694 z m 347 1042 l 1563 1042 l 1563 1389 l 0 1389 z "},"6":{"ha":1701,"x_min":0,"x_max":0,"o":"m 174 0 l 1389 0 l 1563 174 l 1563 868 l 1042 868 l 694 521 l 1215 521 l 1215 347 l 521 347 z m 0 0 l 1389 1389 l 868 1389 l 0 521 l 0 365 z "},"7":{"ha":1701,"x_min":0,"x_max":0,"o":"m 0 1042 l 868 1042 l 1215 1389 l 0 1389 l 0 1284 z m 0 0 l 521 0 l 1563 1042 l 1563 1389 l 1389 1389 z "},"8":{"ha":1701,"x_min":0,"x_max":0,"o":"m 0 0 l 347 347 l 347 521 l 521 521 l 868 868 l 347 868 l 347 1042 l 1042 1042 l 1389 1389 l 0 1389 l 0 868 l 174 694 l 0 521 l 0 365 z m 174 0 l 1563 0 l 1563 521 l 1389 694 l 1563 868 l 1563 1389 l 1215 1042 l 1215 868 l 1042 868 l 694 521 l 1215 521 l 1215 347 l 521 347 z "},"9":{"ha":1701,"x_min":0,"x_max":0,"o":"m 0 521 l 521 521 l 868 868 l 347 868 l 347 1042 l 1042 1042 l 1389 1389 l 174 1389 l 0 1215 l 0 1006 z m 174 0 l 694 0 l 1563 868 l 1563 1389 z "},"\u0000":{"ha":0,"x_min":0,"x_max":0,"o":""},"\r":{"ha":0,"x_min":0,"x_max":0,"o":""}," ":{"ha":486,"x_min":0,"x_max":0,"o":""},"!":{"ha":486,"x_min":0,"x_max":0,"o":"m 0 0 l 347 0 l 347 347 l 0 347 l 0 243 z m 87 521 l 260 521 l 347 694 l 347 1389 l 0 1389 l 0 1180 l 0 694 z "},"\"":{"ha":1006,"x_min":0,"x_max":0,"o":"m 0 1215 l 174 1215 l 347 1389 l 347 1563 l 174 1563 l 0 1389 l 0 1337 z m 521 1215 l 694 1215 l 868 1389 l 868 1563 l 694 1563 l 521 1389 z "},"#":{"ha":1527,"x_min":0,"x_max":0,"o":"m 174 0 l 521 0 l 521 174 l 868 174 l 868 0 l 1215 0 l 1215 174 l 1389 174 l 1389 521 l 1215 521 l 1215 868 l 1389 868 l 1389 1215 l 868 694 l 868 521 l 694 521 z m 0 174 l 174 174 l 521 521 l 521 868 l 868 868 l 1215 1215 l 1215 1389 l 868 1389 l 868 1215 l 521 1215 l 521 1389 l 174 1389 l 174 1215 l 0 1215 l 0 868 l 174 868 l 174 521 l 0 521 l 0 416 z "},"$":{"ha":1701,"x_min":0,"x_max":0,"o":"m 0 0 l 347 347 l 0 347 l 0 243 z m 521 -87 l 1042 -87 l 1042 0 l 1389 0 l 1563 174 l 1563 521 l 1215 868 l 1042 868 l 694 521 l 1042 521 l 1215 347 l 521 347 l 174 0 l 521 0 z m 1215 1042 l 1563 1042 l 1563 1389 z m 347 521 l 521 521 l 868 868 l 521 868 l 347 1042 l 1042 1042 l 1389 1389 l 1042 1389 l 1042 1476 l 521 1476 l 521 1389 l 174 1389 l 0 1215 l 0 1111 l 0 868 z "},"%":{"ha":1701,"x_min":0,"x_max":0,"o":"m 1042 0 l 1389 0 l 1563 174 l 1563 521 l 1215 521 l 1042 347 z m 0 868 l 347 868 l 521 1042 l 521 1389 l 174 1389 l 0 1215 l 0 1111 z m 0 0 l 347 0 l 1563 1215 l 1563 1389 l 1215 1389 l 0 174 l 0 122 z "},"&":{"ha":1701,"x_min":0,"x_max":0,"o":"m 1215 0 l 1563 0 l 1563 347 z m 1042 868 l 347 868 l 347 1042 l 1042 1042 z m 0 0 l 1042 0 l 1563 521 l 1563 868 l 1389 868 l 868 347 l 347 347 l 347 521 l 868 521 l 1389 1042 l 1389 1389 l 0 1389 l 0 868 l 174 694 l 0 521 l 0 365 z "},"'":{"ha":486,"x_min":0,"x_max":0,"o":"m 0 1215 l 174 1215 l 347 1389 l 347 1563 l 174 1563 l 0 1389 l 0 1337 z "},"(":{"ha":833,"x_min":0,"x_max":0,"o":"m 174 -174 l 694 -174 l 347 174 l 347 1215 l 694 1563 l 174 1563 l 0 1389 l 0 972 l 0 0 z "},")":{"ha":833,"x_min":0,"x_max":0,"o":"m 0 -174 l 521 -174 l 694 0 l 694 1389 l 521 1563 l 0 1563 l 347 1215 l 347 174 z "},"*":{"ha":659,"x_min":0,"x_max":0,"o":"m 0 1042 l 174 1042 l 260 1128 l 347 1042 l 521 1042 l 521 1215 l 434 1302 b 519 1389 477 1345 505 1374 l 521 1389 l 521 1563 l 347 1563 l 260 1476 b 174 1561 217 1518 188 1547 l 174 1563 l 0 1563 l 0 1389 l 87 1302 l 0 1215 l 0 1164 z "},"+":{"ha":1180,"x_min":0,"x_max":0,"o":"m 347 174 l 694 174 l 694 521 l 1042 521 l 1042 868 l 694 868 l 694 1215 l 347 1215 l 347 868 l 0 868 l 0 764 l 0 521 l 347 521 z "},",":{"ha":486,"x_min":0,"x_max":0,"o":"m 0 -174 l 174 -174 l 347 0 l 347 347 l 0 347 l 0 174 l 174 174 l 0 0 l 0 -52 z "},"-":{"ha":1180,"x_min":0,"x_max":0,"o":"m 0 521 l 1042 521 l 1042 868 l 0 868 l 0 764 z "},".":{"ha":486,"x_min":0,"x_max":0,"o":"m 0 0 l 347 0 l 347 347 l 0 347 l 0 243 z "},"/":{"ha":1701,"x_min":0,"x_max":0,"o":"m 0 0 l 347 0 l 1563 1215 l 1563 1389 l 1215 1389 l 0 174 l 0 122 z "},":":{"ha":486,"x_min":0,"x_max":0,"o":"m 0 0 l 347 0 l 347 347 l 0 347 l 0 243 z m 0 1042 l 347 1042 l 347 1389 l 0 1389 l 0 1284 z "},";":{"ha":486,"x_min":0,"x_max":0,"o":"m 0 -174 l 174 -174 l 347 0 l 347 347 l 0 347 l 0 174 l 174 174 l 0 0 l 0 -52 z m 0 1042 l 347 1042 l 347 1389 l 0 1389 l 0 1284 z "},"<":{"ha":1180,"x_min":0,"x_max":0,"o":"m 694 0 l 1042 0 l 1042 174 l 521 694 l 1042 1215 l 1042 1389 l 694 1389 l 0 694 z "},"=":{"ha":1180,"x_min":0,"x_max":0,"o":"m 0 174 l 1042 174 l 1042 521 l 0 521 l 0 416 z m 0 868 l 1042 868 l 1042 1215 l 0 1215 l 0 1111 z "},">":{"ha":1180,"x_min":0,"x_max":0,"o":"m 0 0 l 347 0 l 1042 694 l 347 1389 l 0 1389 l 0 1215 l 521 694 l 0 174 l 0 122 z "},"?":{"ha":1701,"x_min":0,"x_max":0,"o":"m 694 0 l 1042 0 l 1042 347 l 694 347 z m 0 868 l 347 868 l 347 1042 l 868 1042 l 1215 1389 l 174 1389 l 0 1215 l 0 1111 z m 694 434 l 1042 434 l 1042 521 l 1563 1042 l 1563 1389 l 1389 1389 l 694 694 z "},"@":{"ha":1701,"x_min":0,"x_max":0,"o":"m 1215 0 l 1563 0 l 1563 347 z m 521 521 l 868 521 l 1215 868 l 868 868 z m 0 0 l 1042 0 l 1563 521 l 1563 868 l 1389 868 l 868 347 l 347 347 l 347 521 l 868 1042 l 1563 1042 l 1563 1389 l 694 1389 l 0 694 l 0 486 z "},"A":{"ha":1701,"x_min":0,"x_max":0,"o":"m 0 0 l 347 0 l 1215 868 l 1215 521 l 1042 521 l 694 174 l 1215 174 l 1215 0 l 1563 0 l 1563 1389 l 1215 1389 l 0 174 l 0 122 z "},"B":{"ha":1701,"x_min":0,"x_max":0,"o":"m 0 0 l 347 347 l 347 521 l 868 521 l 1042 347 l 521 347 l 174 0 l 1563 0 l 1563 347 l 1215 694 l 1563 1042 l 1563 1389 l 1389 1389 l 868 868 l 347 868 l 347 1042 l 868 1042 l 1215 1389 l 0 1389 l 0 972 z "},"C":{"ha":1701,"x_min":0,"x_max":0,"o":"m 0 0 l 1563 0 l 1563 174 l 1389 347 l 347 347 z m 0 174 l 347 521 l 347 868 l 521 1042 l 1389 1042 l 1563 1215 l 1563 1389 l 347 1389 l 0 1042 l 0 781 z "},"D":{"ha":1701,"x_min":0,"x_max":0,"o":"m 0 0 l 1042 0 l 1563 521 l 1563 868 l 1042 1389 l 0 1389 l 0 1024 l 0 174 l 347 521 l 347 1042 l 868 1042 l 1215 694 l 868 347 l 347 347 z "},"E":{"ha":1701,"x_min":0,"x_max":0,"o":"m 0 0 l 1563 0 l 1563 174 l 1389 347 l 694 347 l 868 521 l 1389 521 l 1389 868 l 868 868 l 347 1389 l 0 1389 l 0 1215 l 521 694 l 0 174 l 0 122 z m 868 1042 l 1389 1042 l 1563 1215 l 1563 1389 l 521 1389 z "},"F":{"ha":1701,"x_min":0,"x_max":0,"o":"m 0 0 l 347 0 l 347 521 l 1042 521 l 1215 694 l 1215 868 l 347 868 l 347 1042 l 0 1389 l 0 972 z m 521 1042 l 1389 1042 l 1563 1215 l 1563 1389 l 174 1389 z "},"G":{"ha":1701,"x_min":0,"x_max":0,"o":"m 694 521 l 1215 521 l 1563 868 l 868 868 l 694 694 z m 174 0 l 1389 0 l 1563 174 l 1563 694 l 1215 347 l 347 347 l 347 694 l 694 1042 l 1389 1042 l 1563 1215 l 1563 1389 l 521 1389 l 0 868 l 0 659 l 0 174 z "},"H":{"ha":1701,"x_min":0,"x_max":0,"o":"m 0 0 l 347 0 l 347 521 l 694 868 l 347 868 l 347 1389 l 0 1389 l 0 972 z m 1215 0 l 1563 0 l 1563 1389 l 1215 1389 l 1215 868 l 868 868 l 521 521 l 1215 521 z "},"I":{"ha":486,"x_min":0,"x_max":0,"o":"m 0 0 l 347 0 l 347 1389 l 0 1389 l 0 972 z "},"J":{"ha":1701,"x_min":0,"x_max":0,"o":"m 0 0 l 521 0 l 868 347 l 174 347 l 0 174 l 0 122 z m 694 0 l 1215 0 l 1563 347 l 1563 1389 l 1215 1389 l 1215 521 z "},"K":{"ha":1701,"x_min":0,"x_max":0,"o":"m 0 0 l 347 0 l 347 1389 l 0 1389 l 0 972 z m 1215 0 l 1563 0 l 1563 174 l 1042 694 l 1563 1215 l 1563 1389 l 1215 1389 l 521 694 z "},"L":{"ha":1701,"x_min":0,"x_max":0,"o":"m 174 0 l 1563 0 l 1563 174 l 1389 347 l 521 347 z m 0 0 l 347 347 l 347 1389 l 0 1389 l 0 972 z "},"M":{"ha":2395,"x_min":0,"x_max":0,"o":"m 0 0 l 347 0 l 347 694 l 0 1042 l 0 730 z m 1215 0 l 1563 0 l 1563 174 l 347 1389 l 0 1389 l 0 1337 l 0 1215 z m 1910 0 l 2257 0 l 2257 174 l 1042 1389 l 694 1389 l 694 1215 z "},"N":{"ha":1701,"x_min":0,"x_max":0,"o":"m 0 0 l 347 0 l 347 694 l 0 1042 l 0 730 z m 1215 0 l 1563 0 l 1563 1389 l 1215 1389 l 1215 521 l 347 1389 l 0 1389 l 0 1337 l 0 1215 z "},"O":{"ha":1701,"x_min":0,"x_max":0,"o":"m 174 0 l 1389 0 l 1563 174 l 1563 1215 l 1215 868 l 1215 347 l 521 347 z m 0 0 l 347 347 l 347 1042 l 1215 1042 l 1563 1389 l 174 1389 l 0 1215 l 0 850 z "},"P":{"ha":1701,"x_min":0,"x_max":0,"o":"m 0 0 l 347 0 l 347 1042 l 868 1042 l 1215 1389 l 0 1389 l 0 972 z m 521 521 l 1042 521 l 1563 1042 l 1563 1389 l 1389 1389 l 868 868 l 521 868 z "},"Q":{"ha":1701,"x_min":0,"x_max":0,"o":"m 1215 0 l 1563 0 l 1042 521 l 694 521 z m 174 0 l 1042 0 l 694 347 l 347 347 l 347 1042 l 1215 1042 l 1215 521 l 1563 174 l 1563 1215 l 1389 1389 l 174 1389 l 0 1215 l 0 903 l 0 174 z "},"R":{"ha":1701,"x_min":0,"x_max":0,"o":"m 0 0 l 347 0 l 347 1042 l 0 1389 l 0 972 z m 1215 0 l 1563 0 l 1563 174 l 1128 608 b 1214 694 1171 651 1199 680 l 1215 694 l 1563 1042 l 1563 1389 l 174 1389 l 521 1042 l 1042 1042 l 868 868 l 521 868 l 521 521 l 694 521 z "},"S":{"ha":1701,"x_min":0,"x_max":0,"o":"m 0 0 l 1563 0 l 1563 174 l 347 1389 l 0 1389 l 0 1215 l 868 347 l 0 347 l 0 243 z m 868 1042 l 1563 1042 l 1563 1389 l 521 1389 z "},"T":{"ha":1527,"x_min":0,"x_max":0,"o":"m 521 0 l 868 0 l 868 1042 l 1215 1042 l 1389 1215 l 1389 1389 l 0 1389 l 0 1284 l 0 1042 l 521 1042 z "},"U":{"ha":1701,"x_min":0,"x_max":0,"o":"m 174 0 l 694 0 l 1042 347 l 347 347 l 347 1389 l 0 1389 l 0 1024 l 0 174 z m 868 0 l 1389 0 l 1563 174 l 1563 1389 l 1215 1389 l 1215 347 z "},"V":{"ha":1701,"x_min":0,"x_max":0,"o":"m 0 347 l 347 694 l 347 1389 l 0 1389 l 0 1077 z m 0 0 l 347 0 l 1563 1215 l 1563 1389 l 1215 1389 l 0 174 l 0 122 z "},"W":{"ha":2395,"x_min":0,"x_max":0,"o":"m 1215 0 l 1563 0 l 1563 174 l 347 1389 l 0 1389 l 0 1337 l 0 1215 z m 1910 0 l 2257 0 l 2257 174 l 1042 1389 l 694 1389 l 694 1215 z m 2257 347 l 2257 1389 l 1910 1389 l 1910 694 z "},"X":{"ha":1701,"x_min":0,"x_max":0,"o":"m 1215 0 l 1563 0 l 1563 174 l 1128 608 l 868 347 z m 434 781 l 694 1042 l 347 1389 l 0 1389 l 0 1337 l 0 1215 z m 0 0 l 347 0 l 1563 1215 l 1563 1389 l 1215 1389 l 0 174 l 0 122 z "},"Y":{"ha":1701,"x_min":0,"x_max":0,"o":"m 434 781 l 694 1042 l 347 1389 l 0 1389 l 0 1337 l 0 1215 z m 521 0 l 868 0 l 868 521 l 1563 1215 l 1563 1389 l 1215 1389 l 521 694 z "},"Z":{"ha":1701,"x_min":0,"x_max":0,"o":"m 521 0 l 1563 0 l 1563 347 l 868 347 z m 0 0 l 347 0 l 1563 1215 l 1563 1389 l 0 1389 l 0 1284 l 0 1042 l 868 1042 l 0 174 z "},"[":{"ha":833,"x_min":0,"x_max":0,"o":"m 0 -174 l 694 -174 l 694 174 l 347 174 l 347 1215 l 694 1215 l 694 1563 l 0 1563 l 0 1042 z "},"\\":{"ha":1701,"x_min":0,"x_max":0,"o":"m 1215 0 l 1563 0 l 1563 174 l 347 1389 l 0 1389 l 0 1337 l 0 1215 z "},"]":{"ha":833,"x_min":0,"x_max":0,"o":"m 0 -174 l 694 -174 l 694 1563 l 0 1563 l 0 1215 l 347 1215 l 347 174 l 0 174 l 0 69 z "},"^":{"ha":1006,"x_min":0,"x_max":0,"o":"m 0 1042 l 174 1042 l 434 1302 l 521 1215 l 694 1042 l 868 1042 l 868 1215 l 521 1563 l 347 1563 l 0 1215 l 0 1164 z "},"_":{"ha":1701,"x_min":0,"x_max":0,"o":"m 0 -174 l 1563 -174 l 1563 0 l 1042 0 l 0 0 l 0 -52 z "},"`":{"ha":486,"x_min":0,"x_max":0,"o":"m 174 1215 l 347 1215 l 347 1389 l 174 1563 l 0 1563 l 0 1511 l 0 1389 z "},"a":{"ha":1701,"x_min":0,"x_max":0,"o":"m 0 0 l 347 0 l 347 174 l 868 174 l 521 521 l 347 521 l 347 868 l 1215 0 l 1563 0 l 1563 174 l 347 1389 l 0 1389 l 0 972 z "},"b":{"ha":1701,"x_min":0,"x_max":0,"o":"m 0 0 l 347 347 l 347 521 l 868 521 l 1042 347 l 521 347 l 174 0 l 1563 0 l 1563 347 l 1215 694 l 1563 1042 l 1563 1389 l 1389 1389 l 868 868 l 347 868 l 347 1042 l 868 1042 l 1215 1389 l 0 1389 l 0 972 z "},"c":{"ha":1701,"x_min":0,"x_max":0,"o":"m 0 0 l 1563 0 l 1563 174 l 1389 347 l 347 347 z m 0 174 l 347 521 l 347 868 l 521 1042 l 1389 1042 l 1563 1215 l 1563 1389 l 347 1389 l 0 1042 l 0 781 z "},"d":{"ha":1701,"x_min":0,"x_max":0,"o":"m 0 0 l 1042 0 l 1563 521 l 1563 868 l 1042 1389 l 0 1389 l 0 1024 l 0 174 l 347 521 l 347 1042 l 868 1042 l 1215 694 l 868 347 l 347 347 z "},"e":{"ha":1701,"x_min":0,"x_max":0,"o":"m 0 0 l 1563 0 l 1563 174 l 1389 347 l 694 347 l 868 521 l 1389 521 l 1389 868 l 868 868 l 347 1389 l 0 1389 l 0 1215 l 521 694 l 0 174 l 0 122 z m 868 1042 l 1389 1042 l 1563 1215 l 1563 1389 l 521 1389 z "},"f":{"ha":1701,"x_min":0,"x_max":0,"o":"m 0 0 l 347 0 l 347 521 l 1042 521 l 1215 694 l 1215 868 l 347 868 l 347 1042 l 0 1389 l 0 972 z m 521 1042 l 1389 1042 l 1563 1215 l 1563 1389 l 174 1389 z "},"g":{"ha":1701,"x_min":0,"x_max":0,"o":"m 694 521 l 1215 521 l 1563 868 l 868 868 l 694 694 z m 174 0 l 1389 0 l 1563 174 l 1563 694 l 1215 347 l 347 347 l 347 694 l 694 1042 l 1389 1042 l 1563 1215 l 1563 1389 l 521 1389 l 0 868 l 0 659 l 0 174 z "},"h":{"ha":1701,"x_min":0,"x_max":0,"o":"m 0 0 l 347 0 l 347 521 l 694 868 l 347 868 l 347 1389 l 0 1389 l 0 972 z m 1215 0 l 1563 0 l 1563 1389 l 1215 1389 l 1215 868 l 868 868 l 521 521 l 1215 521 z "},"i":{"ha":486,"x_min":0,"x_max":0,"o":"m 0 0 l 347 0 l 347 1389 l 0 1389 l 0 972 z "},"j":{"ha":1701,"x_min":0,"x_max":0,"o":"m 0 0 l 521 0 l 868 347 l 174 347 l 0 174 l 0 122 z m 694 0 l 1215 0 l 1563 347 l 1563 1389 l 1215 1389 l 1215 521 z "},"k":{"ha":1701,"x_min":0,"x_max":0,"o":"m 0 0 l 347 0 l 347 1389 l 0 1389 l 0 972 z m 1215 0 l 1563 0 l 1563 174 l 1042 694 l 1563 1215 l 1563 1389 l 1215 1389 l 521 694 z "},"l":{"ha":1701,"x_min":0,"x_max":0,"o":"m 174 0 l 1563 0 l 1563 174 l 1389 347 l 521 347 z m 0 0 l 347 347 l 347 1389 l 0 1389 l 0 972 z "},"m":{"ha":2395,"x_min":0,"x_max":0,"o":"m 1910 0 l 2257 0 l 2257 1042 l 1910 694 z m 0 0 l 347 0 l 1563 1215 l 1563 1389 l 1215 1389 l 0 174 l 0 122 z m 694 0 l 1042 0 l 2257 1215 l 2257 1389 l 1910 1389 l 694 174 z "},"n":{"ha":1701,"x_min":0,"x_max":0,"o":"m 0 0 l 347 0 l 347 694 l 0 1042 l 0 730 z m 1215 0 l 1563 0 l 1563 1389 l 1215 1389 l 1215 521 l 347 1389 l 0 1389 l 0 1337 l 0 1215 z "},"o":{"ha":1701,"x_min":0,"x_max":0,"o":"m 174 0 l 1389 0 l 1563 174 l 1563 1215 l 1215 868 l 1215 347 l 521 347 z m 0 0 l 347 347 l 347 1042 l 1215 1042 l 1563 1389 l 174 1389 l 0 1215 l 0 850 z "},"p":{"ha":1701,"x_min":0,"x_max":0,"o":"m 0 0 l 347 0 l 347 1042 l 868 1042 l 1215 1389 l 0 1389 l 0 972 z m 521 521 l 1042 521 l 1563 1042 l 1563 1389 l 1389 1389 l 868 868 l 521 868 z "},"q":{"ha":1701,"x_min":0,"x_max":0,"o":"m 1215 0 l 1563 0 l 1042 521 l 694 521 z m 174 0 l 1042 0 l 694 347 l 347 347 l 347 1042 l 1215 1042 l 1215 521 l 1563 174 l 1563 1215 l 1389 1389 l 174 1389 l 0 1215 l 0 903 l 0 174 z "},"r":{"ha":1701,"x_min":0,"x_max":0,"o":"m 0 0 l 347 0 l 347 1042 l 0 1389 l 0 972 z m 1215 0 l 1563 0 l 1563 174 l 1128 608 b 1214 694 1171 651 1199 680 l 1215 694 l 1563 1042 l 1563 1389 l 174 1389 l 521 1042 l 1042 1042 l 868 868 l 521 868 l 521 521 l 694 521 z "},"s":{"ha":1701,"x_min":0,"x_max":0,"o":"m 0 0 l 1563 0 l 1563 174 l 347 1389 l 0 1389 l 0 1215 l 868 347 l 0 347 l 0 243 z m 868 1042 l 1563 1042 l 1563 1389 l 521 1389 z "},"t":{"ha":1527,"x_min":0,"x_max":0,"o":"m 521 0 l 868 0 l 868 1042 l 1215 1042 l 1389 1215 l 1389 1389 l 0 1389 l 0 1284 l 0 1042 l 521 1042 z "},"u":{"ha":1701,"x_min":0,"x_max":0,"o":"m 174 0 l 694 0 l 1042 347 l 347 347 l 347 1389 l 0 1389 l 0 1024 l 0 174 z m 868 0 l 1389 0 l 1563 174 l 1563 1389 l 1215 1389 l 1215 347 z "},"v":{"ha":1701,"x_min":0,"x_max":0,"o":"m 1215 0 l 1563 0 l 1563 174 l 347 1389 l 0 1389 l 0 1337 l 0 1215 z m 1563 347 l 1563 1389 l 1215 1389 l 1215 694 z "},"w":{"ha":2395,"x_min":0,"x_max":0,"o":"m 0 347 l 347 694 l 347 1389 l 0 1389 l 0 1077 z m 0 0 l 347 0 l 1563 1215 l 1563 1389 l 1215 1389 l 0 174 l 0 122 z m 694 0 l 1042 0 l 2257 1215 l 2257 1389 l 1910 1389 l 694 174 z "},"x":{"ha":1701,"x_min":0,"x_max":0,"o":"m 1215 0 l 1563 0 l 1563 174 l 1128 608 l 868 347 z m 434 781 l 694 1042 l 347 1389 l 0 1389 l 0 1337 l 0 1215 z m 0 0 l 347 0 l 1563 1215 l 1563 1389 l 1215 1389 l 0 174 l 0 122 z "},"y":{"ha":1701,"x_min":0,"x_max":0,"o":"m 434 781 l 694 1042 l 347 1389 l 0 1389 l 0 1337 l 0 1215 z m 521 0 l 868 0 l 868 521 l 1563 1215 l 1563 1389 l 1215 1389 l 521 694 z "},"z":{"ha":1701,"x_min":0,"x_max":0,"o":"m 521 0 l 1563 0 l 1563 347 l 868 347 z m 0 0 l 347 0 l 1563 1215 l 1563 1389 l 0 1389 l 0 1284 l 0 1042 l 868 1042 l 0 174 z "},"{":{"ha":1006,"x_min":0,"x_max":0,"o":"m 347 -174 l 868 -174 l 521 174 l 521 1215 l 868 1563 l 347 1563 l 174 1389 l 174 868 l 0 694 l 174 521 l 174 0 z "},"|":{"ha":486,"x_min":0,"x_max":0,"o":"m 0 -174 l 347 -174 l 347 1563 l 0 1563 l 0 1042 z "},"}":{"ha":1006,"x_min":0,"x_max":0,"o":"m 0 -174 l 521 -174 l 694 0 l 694 521 l 868 694 l 694 868 l 694 1389 l 521 1563 l 0 1563 l 347 1215 l 347 174 z "},"~":{"ha":1874,"x_min":0,"x_max":0,"o":"m 0 347 l 347 347 l 608 608 l 694 521 l 868 347 l 1389 347 l 1736 694 l 1736 868 l 1389 868 l 1128 608 b 1042 693 1085 650 1056 679 l 1042 694 l 868 868 l 347 868 l 0 521 l 0 469 z "},"¡":{"ha":486,"x_min":0,"x_max":0,"o":"m 0 0 l 347 0 l 347 694 l 260 868 l 87 868 l 0 694 l 0 486 z m 0 1042 l 347 1042 l 347 1389 l 0 1389 l 0 1284 z "},"¢":{"ha":1701,"x_min":0,"x_max":0,"o":"m 521 -87 l 1042 -87 l 1042 0 l 1563 0 l 1563 174 l 1389 347 l 347 347 l 347 868 l 0 521 l 0 365 l 0 0 l 521 0 z m 0 694 l 347 1042 l 1389 1042 l 1563 1215 l 1563 1389 l 1042 1389 l 1042 1476 l 521 1476 l 521 1389 l 0 1389 l 0 1180 z "},"£":{"ha":1701,"x_min":0,"x_max":0,"o":"m 0 0 l 1563 0 l 1563 174 l 1389 347 l 694 347 l 868 521 l 868 694 l 1215 694 l 1215 1042 l 868 1042 l 868 1215 l 1389 1215 l 1563 1389 l 1563 1563 l 694 1563 l 521 1389 l 521 1042 l 174 1042 l 174 694 l 521 694 l 0 174 l 0 122 z "},"¤":{"ha":1527,"x_min":0,"x_max":0,"o":"m 868 521 l 521 521 l 521 868 l 868 868 z m 174 0 l 347 174 l 1042 174 l 1215 0 l 1389 174 l 1215 347 l 1215 1042 l 1389 1215 l 1215 1389 l 1042 1215 l 347 1215 l 174 1389 l 0 1215 l 174 1042 l 174 347 l 0 174 z "},"¥":{"ha":1701,"x_min":0,"x_max":0,"o":"m 608 0 l 955 0 l 955 260 l 1215 260 l 1215 521 l 955 521 l 955 608 l 1215 608 l 1215 868 l 1042 868 l 1563 1389 l 1563 1563 l 1215 1563 l 781 1128 b 694 1214 738 1171 709 1199 l 694 1215 l 347 1563 l 0 1563 l 0 1511 l 0 1389 l 521 868 l 347 868 l 347 608 l 608 608 l 608 521 l 347 521 l 347 260 l 608 260 z "},"¦":{"ha":486,"x_min":0,"x_max":0,"o":"m 0 -174 l 347 -174 l 347 521 l 0 521 l 0 312 z m 0 868 l 347 868 l 347 1563 l 0 1563 l 0 1354 z "},"§":{"ha":1701,"x_min":0,"x_max":0,"o":"m 1042 694 l 694 694 l 521 868 l 868 868 z m 0 0 l 1389 0 l 1563 174 l 1563 521 l 1389 694 l 1389 868 l 1215 1042 l 521 1042 l 347 1215 l 1563 1215 l 1563 1563 l 174 1563 l 0 1389 l 0 1042 l 174 868 l 174 694 l 347 521 l 1042 521 l 1215 347 l 0 347 l 0 243 z "},"¨":{"ha":1180,"x_min":0,"x_max":0,"o":"m 174 1563 l 521 1563 l 521 1910 l 174 1910 z m 694 1563 l 1042 1563 l 1042 1910 l 694 1910 z "},"«":{"ha":1874,"x_min":0,"x_max":0,"o":"m 694 0 l 1042 0 l 1042 174 l 521 694 l 1042 1215 l 1042 1389 l 694 1389 l 0 694 z m 1389 0 l 1736 0 l 1736 174 l 1215 694 l 1736 1215 l 1736 1389 l 1389 1389 l 694 694 z "},"¬":{"ha":1527,"x_min":0,"x_max":0,"o":"m 1042 174 l 1389 174 l 1389 868 l 0 868 l 0 764 l 0 521 l 1042 521 z "},"¯":{"ha":1527,"x_min":0,"x_max":0,"o":"m 174 1563 l 1389 1563 l 1389 1910 l 174 1910 z "},"°":{"ha":1006,"x_min":0,"x_max":0,"o":"m 434 1563 l 608 1563 l 694 1649 l 694 1823 l 608 1910 l 434 1910 l 347 1823 l 347 1649 z "},"±":{"ha":1180,"x_min":0,"x_max":0,"o":"m 0 0 l 1042 0 l 1042 347 l 0 347 l 0 243 z m 347 521 l 694 521 l 694 868 l 1042 868 l 1042 1215 l 694 1215 l 694 1563 l 347 1563 l 347 1215 l 0 1215 l 0 1111 l 0 868 l 347 868 z "},"´":{"ha":1006,"x_min":0,"x_max":0,"o":"m 347 1563 l 521 1563 l 694 1736 l 694 1910 l 521 1910 l 347 1736 z "},"·":{"ha":659,"x_min":0,"x_max":0,"o":"m 174 521 l 521 521 l 521 868 l 174 868 z "},"¸":{"ha":1006,"x_min":0,"x_max":0,"o":"m 347 -521 l 521 -521 l 694 -347 l 694 0 l 578 0 l 347 0 l 347 -174 l 521 -174 l 347 -347 z "},"»":{"ha":1874,"x_min":0,"x_max":0,"o":"m 0 0 l 347 0 l 1042 694 l 347 1389 l 0 1389 l 0 1215 l 521 694 l 0 174 l 0 122 z m 694 0 l 1042 0 l 1736 694 l 1042 1389 l 694 1389 l 694 1215 l 1215 694 l 694 174 z "},"¿":{"ha":1701,"x_min":0,"x_max":0,"o":"m 347 0 l 1389 0 l 1563 174 l 1563 521 l 1215 521 l 1215 347 l 694 347 z m 0 0 l 174 0 l 868 694 l 868 955 l 521 955 l 521 868 l 0 347 l 0 243 z m 521 1042 l 868 1042 l 868 1389 l 521 1389 z "},"À":{"ha":1701,"x_min":0,"x_max":0,"o":"m 0 0 l 347 0 l 1215 868 l 1215 521 l 1042 521 l 694 174 l 1215 174 l 1215 0 l 1563 0 l 1563 1389 l 1215 1389 l 0 174 l 0 122 z m 1389 1563 l 1563 1563 l 1563 1736 l 1389 1910 l 1215 1910 l 1215 1736 z "},"Á":{"ha":1701,"x_min":0,"x_max":0,"o":"m 0 0 l 347 0 l 1215 868 l 1215 521 l 1042 521 l 694 174 l 1215 174 l 1215 0 l 1563 0 l 1563 1389 l 1215 1389 l 0 174 l 0 122 z m 1215 1563 l 1389 1563 l 1563 1736 l 1563 1910 l 1389 1910 l 1215 1736 z "},"Â":{"ha":1701,"x_min":0,"x_max":0,"o":"m 0 0 l 347 0 l 1215 868 l 1215 521 l 1042 521 l 694 174 l 1215 174 l 1215 0 l 1563 0 l 1563 1389 l 1215 1389 l 0 174 l 0 122 z m 1042 1563 l 1215 1563 l 1389 1736 l 1563 1563 l 1736 1563 l 1736 1736 l 1563 1910 l 1215 1910 l 1042 1736 z "},"Ã":{"ha":1874,"x_min":0,"x_max":0,"o":"m 0 0 l 347 0 l 1215 868 l 1215 521 l 1042 521 l 694 174 l 1215 174 l 1215 0 l 1563 0 l 1563 1389 l 1215 1389 l 0 174 l 0 122 z m 868 1563 l 1042 1563 l 1215 1736 l 1389 1563 l 1736 1563 l 1910 1736 l 1910 1910 l 1736 1910 l 1563 1736 l 1389 1910 l 1042 1910 l 868 1736 z "},"Ä":{"ha":1874,"x_min":0,"x_max":0,"o":"m 0 0 l 347 0 l 1215 868 l 1215 521 l 1042 521 l 694 174 l 1215 174 l 1215 0 l 1563 0 l 1563 1389 l 1215 1389 l 0 174 l 0 122 z m 955 1563 l 1302 1563 l 1302 1910 l 955 1910 z m 1476 1563 l 1823 1563 l 1823 1910 l 1476 1910 z "},"Å":{"ha":1701,"x_min":0,"x_max":0,"o":"m 0 0 l 347 0 l 1215 868 l 1215 521 l 1042 521 l 694 174 l 1215 174 l 1215 0 l 1563 0 l 1563 1389 l 1215 1389 l 0 174 l 0 122 z m 1302 1563 l 1476 1563 l 1563 1649 l 1563 1823 l 1476 1910 l 1302 1910 l 1215 1823 l 1215 1649 z "},"Æ":{"ha":2916,"x_min":0,"x_max":0,"o":"m 0 0 l 347 0 l 1215 868 l 1215 521 l 1042 521 l 694 174 l 1215 174 l 1215 0 l 2778 0 l 2778 174 l 2604 347 l 1563 347 l 1563 521 l 2604 521 l 2604 868 l 1563 868 l 1563 1042 l 2604 1042 l 2778 1215 l 2778 1389 l 1215 1389 l 0 174 l 0 122 z "},"Ç":{"ha":1701,"x_min":0,"x_max":0,"o":"m 651 -521 l 825 -521 l 998 -347 l 998 0 l 1563 0 l 1563 174 l 1389 347 l 347 347 l 0 0 l 651 0 l 651 -174 l 825 -174 l 651 -347 z m 0 174 l 0 781 l 0 1042 l 347 1389 l 1563 1389 l 1563 1215 l 1389 1042 l 521 1042 l 347 868 l 347 521 z "},"È":{"ha":1701,"x_min":0,"x_max":0,"o":"m 0 0 l 1563 0 l 1563 174 l 1389 347 l 694 347 l 868 521 l 1389 521 l 1389 868 l 868 868 l 347 1389 l 0 1389 l 0 1215 l 521 694 l 0 174 l 0 122 z m 868 1042 l 1389 1042 l 1563 1215 l 1563 1389 l 521 1389 z m 868 1563 l 1042 1563 l 1042 1736 l 868 1910 l 694 1910 l 694 1736 z "},"É":{"ha":1701,"x_min":0,"x_max":0,"o":"m 0 0 l 1563 0 l 1563 174 l 1389 347 l 694 347 l 868 521 l 1389 521 l 1389 868 l 868 868 l 347 1389 l 0 1389 l 0 1215 l 521 694 l 0 174 l 0 122 z m 868 1042 l 1389 1042 l 1563 1215 l 1563 1389 l 521 1389 z m 694 1563 l 868 1563 l 1042 1736 l 1042 1910 l 868 1910 l 694 1736 z "},"Ê":{"ha":1701,"x_min":0,"x_max":0,"o":"m 0 0 l 1563 0 l 1563 174 l 1389 347 l 694 347 l 868 521 l 1389 521 l 1389 868 l 868 868 l 347 1389 l 0 1389 l 0 1215 l 521 694 l 0 174 l 0 122 z m 868 1042 l 1389 1042 l 1563 1215 l 1563 1389 l 521 1389 z m 521 1563 l 694 1563 l 868 1736 l 1042 1563 l 1215 1563 l 1215 1736 l 1042 1910 l 694 1910 l 521 1736 z "},"Ë":{"ha":1701,"x_min":0,"x_max":0,"o":"m 0 0 l 1563 0 l 1563 174 l 1389 347 l 694 347 l 868 521 l 1389 521 l 1389 868 l 868 868 l 347 1389 l 0 1389 l 0 1215 l 521 694 l 0 174 l 0 122 z m 868 1042 l 1389 1042 l 1563 1215 l 1563 1389 l 521 1389 z m 347 1563 l 694 1563 l 694 1910 l 347 1910 z m 868 1563 l 1215 1563 l 1215 1910 l 868 1910 z "},"Ì":{"ha":486,"x_min":0,"x_max":0,"o":"m 0 0 l 347 0 l 347 1389 l 0 1389 l 0 972 z m 174 1563 l 347 1563 l 347 1736 l 174 1910 l 0 1910 l 0 1858 l 0 1736 z "},"Í":{"ha":486,"x_min":0,"x_max":0,"o":"m 0 0 l 347 0 l 347 1389 l 0 1389 l 0 972 z m 0 1563 l 174 1563 l 347 1736 l 347 1910 l 174 1910 l 0 1736 l 0 1685 z "},"Î":{"ha":833,"x_min":0,"x_max":0,"o":"m 174 0 l 521 0 l 521 1389 l 174 1389 l 174 868 z m 0 1563 l 174 1563 l 347 1736 l 521 1563 l 694 1563 l 694 1736 l 521 1910 l 174 1910 l 0 1736 l 0 1685 z "},"Ï":{"ha":833,"x_min":0,"x_max":0,"o":"m 174 0 l 521 0 l 521 1389 l 174 1389 l 174 868 z m -87 1563 l 260 1563 l 260 1910 l -87 1910 z m 434 1563 l 781 1563 l 781 1910 l 434 1910 z "},"Ð":{"ha":2048,"x_min":0,"x_max":0,"o":"m 347 0 l 1389 0 l 1910 521 l 1910 868 l 1389 1389 l 347 1389 l 347 868 l 0 868 l 0 764 l 0 521 l 347 521 l 347 174 l 694 521 l 694 1042 l 1215 1042 l 1563 694 l 1215 347 l 694 347 z "},"Ñ":{"ha":1701,"x_min":0,"x_max":0,"o":"m 0 0 l 347 0 l 347 694 l 0 1042 l 0 730 z m 1215 0 l 1563 0 l 1563 1389 l 1215 1389 l 1215 521 l 347 1389 l 0 1389 l 0 1337 l 0 1215 z m 275 1563 l 449 1563 l 623 1736 l 796 1563 l 1143 1563 l 1317 1736 l 1317 1910 l 1143 1910 l 970 1736 l 796 1910 l 449 1910 l 275 1736 z "},"Ò":{"ha":1701,"x_min":0,"x_max":0,"o":"m 174 0 l 1389 0 l 1563 174 l 1563 1215 l 1215 868 l 1215 347 l 521 347 z m 0 0 l 347 347 l 347 1042 l 1215 1042 l 1563 1389 l 174 1389 l 0 1215 l 0 850 z m 694 1563 l 868 1563 l 868 1736 l 694 1910 l 521 1910 l 521 1736 z "},"Ó":{"ha":1701,"x_min":0,"x_max":0,"o":"m 174 0 l 1389 0 l 1563 174 l 1563 1215 l 1215 868 l 1215 347 l 521 347 z m 0 0 l 347 347 l 347 1042 l 1215 1042 l 1563 1389 l 174 1389 l 0 1215 l 0 850 z m 694 1563 l 868 1563 l 1042 1736 l 1042 1910 l 868 1910 l 694 1736 z "},"Ô":{"ha":1701,"x_min":0,"x_max":0,"o":"m 174 0 l 1389 0 l 1563 174 l 1563 1215 l 1215 868 l 1215 347 l 521 347 z m 0 0 l 347 347 l 347 1042 l 1215 1042 l 1563 1389 l 174 1389 l 0 1215 l 0 850 z m 463 1563 l 636 1563 l 810 1736 l 983 1563 l 1157 1563 l 1157 1736 l 983 1910 l 636 1910 l 463 1736 z "},"Õ":{"ha":1701,"x_min":0,"x_max":0,"o":"m 174 0 l 1389 0 l 1563 174 l 1563 1215 l 1215 868 l 1215 347 l 521 347 z m 0 0 l 347 347 l 347 1042 l 1215 1042 l 1563 1389 l 174 1389 l 0 1215 l 0 850 z m 307 1557 l 480 1557 l 654 1731 l 827 1557 l 1175 1557 l 1348 1731 l 1348 1904 l 1175 1904 l 1001 1731 l 827 1904 l 480 1904 l 307 1731 z "},"Ö":{"ha":1701,"x_min":0,"x_max":0,"o":"m 174 0 l 1389 0 l 1563 174 l 1563 1215 l 1215 868 l 1215 347 l 521 347 z m 0 0 l 347 347 l 347 1042 l 1215 1042 l 1563 1389 l 174 1389 l 0 1215 l 0 850 z m 347 1563 l 694 1563 l 694 1910 l 347 1910 z m 868 1563 l 1215 1563 l 1215 1910 l 868 1910 z "},"×":{"ha":1527,"x_min":0,"x_max":0,"o":"m 174 174 l 521 174 l 781 434 l 868 347 l 1042 174 l 1389 174 l 1389 347 l 1042 694 l 1389 1042 l 1389 1215 l 1042 1215 l 781 955 b 694 1040 738 997 709 1026 l 694 1042 l 521 1215 l 174 1215 l 174 1042 l 521 694 l 174 347 z "},"Ø":{"ha":1874,"x_min":0,"x_max":0,"o":"m -174 -347 l 174 0 l 117 0 l 0 0 l -174 -174 z m 347 347 l 521 347 l 1215 1042 l 1042 1042 z m 0 0 l 347 347 l 347 1042 l 1042 1042 l 1389 1389 l 174 1389 l 0 1215 l 0 850 z m 174 0 l 1389 0 l 1563 174 l 1563 1389 l 1215 1042 l 1215 347 l 521 347 z m 1389 1389 l 1563 1389 l 1736 1563 l 1736 1736 z "},"Ù":{"ha":1701,"x_min":0,"x_max":0,"o":"m 174 0 l 694 0 l 1042 347 l 347 347 l 347 1389 l 0 1389 l 0 1024 l 0 174 z m 868 0 l 1389 0 l 1563 174 l 1563 1389 l 1215 1389 l 1215 347 z m 694 1563 l 868 1563 l 868 1736 l 694 1910 l 521 1910 l 521 1736 z "},"Ú":{"ha":1701,"x_min":0,"x_max":0,"o":"m 174 0 l 694 0 l 1042 347 l 347 347 l 347 1389 l 0 1389 l 0 1024 l 0 174 z m 868 0 l 1389 0 l 1563 174 l 1563 1389 l 1215 1389 l 1215 347 z m 694 1563 l 868 1563 l 1042 1736 l 1042 1910 l 868 1910 l 694 1736 z "},"Û":{"ha":1701,"x_min":0,"x_max":0,"o":"m 174 0 l 694 0 l 1042 347 l 347 347 l 347 1389 l 0 1389 l 0 1024 l 0 174 z m 868 0 l 1389 0 l 1563 174 l 1563 1389 l 1215 1389 l 1215 347 z m 437 1563 l 610 1563 l 784 1736 l 958 1563 l 1131 1563 l 1131 1736 l 958 1910 l 610 1910 l 437 1736 z "},"Ü":{"ha":1701,"x_min":0,"x_max":0,"o":"m 174 0 l 694 0 l 1042 347 l 347 347 l 347 1389 l 0 1389 l 0 1024 l 0 174 z m 868 0 l 1389 0 l 1563 174 l 1563 1389 l 1215 1389 l 1215 347 z m 347 1563 l 694 1563 l 694 1910 l 347 1910 z m 868 1563 l 1215 1563 l 1215 1910 l 868 1910 z "},"Ý":{"ha":1701,"x_min":0,"x_max":0,"o":"m 434 781 l 694 1042 l 347 1389 l 0 1389 l 0 1337 l 0 1215 z m 521 0 l 868 0 l 868 521 l 1563 1215 l 1563 1389 l 1215 1389 l 521 694 z m 521 1563 l 694 1563 l 868 1736 l 868 1910 l 694 1910 l 521 1736 z "},"Þ":{"ha":1354,"x_min":0,"x_max":0,"o":"m 694 521 l 347 521 l 347 868 l 694 868 l 868 694 z m 0 0 l 347 0 l 347 174 l 868 174 l 1215 521 l 1215 868 l 868 1215 l 347 1215 l 347 1389 l 0 1389 l 0 972 z "},"ß":{"ha":1701,"x_min":0,"x_max":0,"o":"m 0 0 l 347 0 l 347 1042 l 1042 1042 l 868 868 l 521 868 l 521 521 l 868 521 l 1042 347 l 521 347 l 521 0 l 1563 0 l 1563 347 l 1215 694 l 1563 1042 l 1563 1389 l 0 1389 l 0 972 z "},"à":{"ha":1701,"x_min":0,"x_max":0,"o":"m 0 0 l 347 0 l 1215 868 l 1215 521 l 1042 521 l 694 174 l 1215 174 l 1215 0 l 1563 0 l 1563 1389 l 1215 1389 l 0 174 l 0 122 z m 1389 1563 l 1563 1563 l 1563 1736 l 1389 1910 l 1215 1910 l 1215 1736 z "},"á":{"ha":1701,"x_min":0,"x_max":0,"o":"m 0 0 l 347 0 l 1215 868 l 1215 521 l 1042 521 l 694 174 l 1215 174 l 1215 0 l 1563 0 l 1563 1389 l 1215 1389 l 0 174 l 0 122 z m 1215 1563 l 1389 1563 l 1563 1736 l 1563 1910 l 1389 1910 l 1215 1736 z "},"â":{"ha":1874,"x_min":0,"x_max":0,"o":"m 0 0 l 347 0 l 1215 868 l 1215 521 l 1042 521 l 694 174 l 1215 174 l 1215 0 l 1563 0 l 1563 1389 l 1215 1389 l 0 174 l 0 122 z m 1042 1563 l 1215 1563 l 1389 1736 l 1563 1563 l 1736 1563 l 1736 1736 l 1563 1910 l 1215 1910 l 1042 1736 z "},"ã":{"ha":1874,"x_min":0,"x_max":0,"o":"m 0 0 l 347 0 l 1215 868 l 1215 521 l 1042 521 l 694 174 l 1215 174 l 1215 0 l 1563 0 l 1563 1389 l 1215 1389 l 0 174 l 0 122 z m 868 1563 l 1042 1563 l 1215 1736 l 1389 1563 l 1736 1563 l 1910 1736 l 1910 1910 l 1736 1910 l 1563 1736 l 1389 1910 l 1042 1910 l 868 1736 z "},"ä":{"ha":1874,"x_min":0,"x_max":0,"o":"m 0 0 l 347 0 l 1215 868 l 1215 521 l 1042 521 l 694 174 l 1215 174 l 1215 0 l 1563 0 l 1563 1389 l 1215 1389 l 0 174 l 0 122 z m 955 1563 l 1302 1563 l 1302 1910 l 955 1910 z m 1476 1563 l 1823 1563 l 1823 1910 l 1476 1910 z "},"å":{"ha":1701,"x_min":0,"x_max":0,"o":"m 0 0 l 347 0 l 1215 868 l 1215 521 l 1042 521 l 694 174 l 1215 174 l 1215 0 l 1563 0 l 1563 1389 l 1215 1389 l 0 174 l 0 122 z m 1302 1563 l 1476 1563 l 1563 1649 l 1563 1823 l 1476 1910 l 1302 1910 l 1215 1823 l 1215 1649 z "},"æ":{"ha":2916,"x_min":0,"x_max":0,"o":"m 0 0 l 347 0 l 1215 868 l 1215 521 l 1042 521 l 694 174 l 1215 174 l 1215 0 l 2778 0 l 2778 174 l 2604 347 l 1563 347 l 1563 521 l 2604 521 l 2604 868 l 1563 868 l 1563 1042 l 2604 1042 l 2778 1215 l 2778 1389 l 1215 1389 l 0 174 l 0 122 z "},"ç":{"ha":1701,"x_min":0,"x_max":0,"o":"m 651 -521 l 825 -521 l 998 -347 l 998 0 l 1563 0 l 1563 174 l 1389 347 l 347 347 l 0 0 l 651 0 l 651 -174 l 825 -174 l 651 -347 z m 0 174 l 0 781 l 0 1042 l 347 1389 l 1563 1389 l 1563 1215 l 1389 1042 l 521 1042 l 347 868 l 347 521 z "},"è":{"ha":1701,"x_min":0,"x_max":0,"o":"m 0 0 l 1563 0 l 1563 174 l 1389 347 l 694 347 l 868 521 l 1389 521 l 1389 868 l 868 868 l 347 1389 l 0 1389 l 0 1215 l 521 694 l 0 174 l 0 122 z m 868 1042 l 1389 1042 l 1563 1215 l 1563 1389 l 521 1389 z m 868 1563 l 1042 1563 l 1042 1736 l 868 1910 l 694 1910 l 694 1736 z "},"é":{"ha":1701,"x_min":0,"x_max":0,"o":"m 0 0 l 1563 0 l 1563 174 l 1389 347 l 694 347 l 868 521 l 1389 521 l 1389 868 l 868 868 l 347 1389 l 0 1389 l 0 1215 l 521 694 l 0 174 l 0 122 z m 868 1042 l 1389 1042 l 1563 1215 l 1563 1389 l 521 1389 z m 694 1563 l 868 1563 l 1042 1736 l 1042 1910 l 868 1910 l 694 1736 z "},"ê":{"ha":1701,"x_min":0,"x_max":0,"o":"m 0 0 l 1563 0 l 1563 174 l 1389 347 l 694 347 l 868 521 l 1389 521 l 1389 868 l 868 868 l 347 1389 l 0 1389 l 0 1215 l 521 694 l 0 174 l 0 122 z m 868 1042 l 1389 1042 l 1563 1215 l 1563 1389 l 521 1389 z m 521 1563 l 694 1563 l 868 1736 l 1042 1563 l 1215 1563 l 1215 1736 l 1042 1910 l 694 1910 l 521 1736 z "},"ë":{"ha":1701,"x_min":0,"x_max":0,"o":"m 0 0 l 1563 0 l 1563 174 l 1389 347 l 694 347 l 868 521 l 1389 521 l 1389 868 l 868 868 l 347 1389 l 0 1389 l 0 1215 l 521 694 l 0 174 l 0 122 z m 868 1042 l 1389 1042 l 1563 1215 l 1563 1389 l 521 1389 z m 347 1563 l 694 1563 l 694 1910 l 347 1910 z m 868 1563 l 1215 1563 l 1215 1910 l 868 1910 z "},"ì":{"ha":486,"x_min":0,"x_max":0,"o":"m 0 0 l 347 0 l 347 1389 l 0 1389 l 0 972 z m 174 1563 l 347 1563 l 347 1736 l 174 1910 l 0 1910 l 0 1858 l 0 1736 z "},"í":{"ha":486,"x_min":0,"x_max":0,"o":"m 0 0 l 347 0 l 347 1389 l 0 1389 l 0 972 z m 0 1563 l 174 1563 l 347 1736 l 347 1910 l 174 1910 l 0 1736 l 0 1685 z "},"î":{"ha":833,"x_min":0,"x_max":0,"o":"m 174 0 l 521 0 l 521 1389 l 174 1389 l 174 868 z m 0 1563 l 174 1563 l 347 1736 l 521 1563 l 694 1563 l 694 1736 l 521 1910 l 174 1910 l 0 1736 l 0 1685 z "},"ï":{"ha":833,"x_min":0,"x_max":0,"o":"m 174 0 l 521 0 l 521 1389 l 174 1389 l 174 868 z m -87 1563 l 260 1563 l 260 1910 l -87 1910 z m 434 1563 l 781 1563 l 781 1910 l 434 1910 z "},"ð":{"ha":1701,"x_min":0,"x_max":0,"o":"m 174 0 l 1389 0 l 1563 174 l 1563 1215 l 868 1910 l 521 1910 l 521 2083 l 174 2083 l 174 1910 l 0 1910 l 0 1563 l 174 1563 l 174 1389 l 521 1389 l 521 1563 l 694 1563 l 1215 1042 l 1215 347 l 347 347 l 347 868 l 1042 868 l 1042 1042 l 868 1215 l 174 1215 l 0 1042 l 0 781 l 0 174 z "},"ñ":{"ha":1701,"x_min":0,"x_max":0,"o":"m 0 0 l 347 0 l 347 694 l 0 1042 l 0 730 z m 1215 0 l 1563 0 l 1563 1389 l 1215 1389 l 1215 521 l 347 1389 l 0 1389 l 0 1337 l 0 1215 z m 275 1563 l 449 1563 l 623 1736 l 796 1563 l 1143 1563 l 1317 1736 l 1317 1910 l 1143 1910 l 970 1736 l 796 1910 l 449 1910 l 275 1736 z "},"ò":{"ha":1701,"x_min":0,"x_max":0,"o":"m 174 0 l 1389 0 l 1563 174 l 1563 1215 l 1215 868 l 1215 347 l 521 347 z m 0 0 l 347 347 l 347 1042 l 1215 1042 l 1563 1389 l 174 1389 l 0 1215 l 0 850 z m 694 1563 l 868 1563 l 868 1736 l 694 1910 l 521 1910 l 521 1736 z "},"ó":{"ha":1701,"x_min":0,"x_max":0,"o":"m 174 0 l 1389 0 l 1563 174 l 1563 1215 l 1215 868 l 1215 347 l 521 347 z m 0 0 l 347 347 l 347 1042 l 1215 1042 l 1563 1389 l 174 1389 l 0 1215 l 0 850 z m 694 1563 l 868 1563 l 1042 1736 l 1042 1910 l 868 1910 l 694 1736 z "},"ô":{"ha":1701,"x_min":0,"x_max":0,"o":"m 174 0 l 1389 0 l 1563 174 l 1563 1215 l 1215 868 l 1215 347 l 521 347 z m 0 0 l 347 347 l 347 1042 l 1215 1042 l 1563 1389 l 174 1389 l 0 1215 l 0 850 z m 463 1563 l 636 1563 l 810 1736 l 983 1563 l 1157 1563 l 1157 1736 l 983 1910 l 636 1910 l 463 1736 z "},"õ":{"ha":1701,"x_min":0,"x_max":0,"o":"m 174 0 l 1389 0 l 1563 174 l 1563 1215 l 1215 868 l 1215 347 l 521 347 z m 0 0 l 347 347 l 347 1042 l 1215 1042 l 1563 1389 l 174 1389 l 0 1215 l 0 850 z m 307 1557 l 480 1557 l 654 1731 l 827 1557 l 1175 1557 l 1348 1731 l 1348 1904 l 1175 1904 l 1001 1731 l 827 1904 l 480 1904 l 307 1731 z "},"ö":{"ha":1701,"x_min":0,"x_max":0,"o":"m 174 0 l 1389 0 l 1563 174 l 1563 1215 l 1215 868 l 1215 347 l 521 347 z m 0 0 l 347 347 l 347 1042 l 1215 1042 l 1563 1389 l 174 1389 l 0 1215 l 0 850 z m 347 1563 l 694 1563 l 694 1910 l 347 1910 z m 868 1563 l 1215 1563 l 1215 1910 l 868 1910 z "},"÷":{"ha":1527,"x_min":0,"x_max":0,"o":"m 608 0 l 781 0 l 868 87 l 868 260 l 781 347 l 608 347 l 521 260 l 521 87 z m 0 521 l 1389 521 l 1389 868 l 0 868 l 0 764 z m 608 1042 l 781 1042 l 868 1128 l 868 1302 l 781 1389 l 608 1389 l 521 1302 l 521 1128 z "},"ø":{"ha":1874,"x_min":0,"x_max":0,"o":"m -174 -347 l 174 0 l 117 0 l 0 0 l -174 -174 z m 347 347 l 521 347 l 1215 1042 l 1042 1042 z m 0 0 l 347 347 l 347 1042 l 1042 1042 l 1389 1389 l 174 1389 l 0 1215 l 0 850 z m 174 0 l 1389 0 l 1563 174 l 1563 1389 l 1215 1042 l 1215 347 l 521 347 z m 1389 1389 l 1563 1389 l 1736 1563 l 1736 1736 z "},"ù":{"ha":1701,"x_min":0,"x_max":0,"o":"m 174 0 l 694 0 l 1042 347 l 347 347 l 347 1389 l 0 1389 l 0 1024 l 0 174 z m 868 0 l 1389 0 l 1563 174 l 1563 1389 l 1215 1389 l 1215 347 z m 694 1563 l 868 1563 l 868 1736 l 694 1910 l 521 1910 l 521 1736 z "},"ú":{"ha":1701,"x_min":0,"x_max":0,"o":"m 174 0 l 694 0 l 1042 347 l 347 347 l 347 1389 l 0 1389 l 0 1024 l 0 174 z m 868 0 l 1389 0 l 1563 174 l 1563 1389 l 1215 1389 l 1215 347 z m 694 1563 l 868 1563 l 1042 1736 l 1042 1910 l 868 1910 l 694 1736 z "},"û":{"ha":1701,"x_min":0,"x_max":0,"o":"m 174 0 l 694 0 l 1042 347 l 347 347 l 347 1389 l 0 1389 l 0 1024 l 0 174 z m 868 0 l 1389 0 l 1563 174 l 1563 1389 l 1215 1389 l 1215 347 z m 521 1563 l 694 1563 l 868 1736 l 1042 1563 l 1215 1563 l 1215 1736 l 1042 1910 l 694 1910 l 521 1736 z "},"ü":{"ha":1701,"x_min":0,"x_max":0,"o":"m 174 0 l 694 0 l 1042 347 l 347 347 l 347 1389 l 0 1389 l 0 1024 l 0 174 z m 868 0 l 1389 0 l 1563 174 l 1563 1389 l 1215 1389 l 1215 347 z m 347 1563 l 694 1563 l 694 1910 l 347 1910 z m 868 1563 l 1215 1563 l 1215 1910 l 868 1910 z "},"ý":{"ha":1701,"x_min":0,"x_max":0,"o":"m 434 781 l 694 1042 l 347 1389 l 0 1389 l 0 1337 l 0 1215 z m 521 0 l 868 0 l 868 521 l 1563 1215 l 1563 1389 l 1215 1389 l 521 694 z m 521 1563 l 694 1563 l 868 1736 l 868 1910 l 694 1910 l 521 1736 z "},"þ":{"ha":1354,"x_min":0,"x_max":0,"o":"m 694 521 l 347 521 l 347 868 l 694 868 l 868 694 z m 0 0 l 347 0 l 347 174 l 868 174 l 1215 521 l 1215 868 l 868 1215 l 347 1215 l 347 1389 l 0 1389 l 0 972 z "},"ÿ":{"ha":1701,"x_min":0,"x_max":0,"o":"m 434 781 l 694 1042 l 347 1389 l 0 1389 l 0 1337 l 0 1215 z m 521 0 l 868 0 l 868 521 l 1563 1215 l 1563 1389 l 1215 1389 l 521 694 z m 347 1563 l 694 1563 l 694 1910 l 347 1910 z m 868 1563 l 1215 1563 l 1215 1910 l 868 1910 z "},"Ā":{"ha":1701,"x_min":0,"x_max":0,"o":"m 0 0 l 347 0 l 1215 868 l 1215 521 l 1042 521 l 694 174 l 1215 174 l 1215 0 l 1563 0 l 1563 1389 l 1215 1389 l 0 174 l 0 122 z m 868 1563 l 1910 1563 l 1910 1736 l 868 1736 z "},"ā":{"ha":1701,"x_min":0,"x_max":0,"o":"m 0 0 l 347 0 l 1215 868 l 1215 521 l 1042 521 l 694 174 l 1215 174 l 1215 0 l 1563 0 l 1563 1389 l 1215 1389 l 0 174 l 0 122 z m 868 1563 l 1910 1563 l 1910 1736 l 868 1736 z "},"Ă":{"ha":1701,"x_min":0,"x_max":0,"o":"m 0 0 l 347 0 l 1215 868 l 1215 521 l 1042 521 l 694 174 l 1215 174 l 1215 0 l 1563 0 l 1563 1389 l 1215 1389 l 0 174 l 0 122 z m 1042 1563 l 1736 1563 l 1910 1736 l 1910 1910 l 1736 1910 l 1563 1736 l 1215 1736 l 1042 1910 l 868 1910 l 868 1736 z "},"ă":{"ha":1701,"x_min":0,"x_max":0,"o":"m 0 0 l 347 0 l 1215 868 l 1215 521 l 1042 521 l 694 174 l 1215 174 l 1215 0 l 1563 0 l 1563 1389 l 1215 1389 l 0 174 l 0 122 z m 1042 1563 l 1736 1563 l 1910 1736 l 1910 1910 l 1736 1910 l 1563 1736 l 1215 1736 l 1042 1910 l 868 1910 l 868 1736 z "},"Ą":{"ha":1701,"x_min":0,"x_max":0,"o":"m 1042 -347 l 1389 -347 l 1215 -174 l 1389 0 l 1563 0 l 1563 1389 l 1215 1389 l 0 174 l 0 122 l 0 0 l 347 0 l 1215 868 l 1215 521 l 1042 521 l 694 174 l 1215 174 l 868 -174 z "},"ą":{"ha":1701,"x_min":0,"x_max":0,"o":"m 1042 -347 l 1389 -347 l 1215 -174 l 1389 0 l 1563 0 l 1563 1389 l 1215 1389 l 0 174 l 0 122 l 0 0 l 347 0 l 1215 868 l 1215 521 l 1042 521 l 694 174 l 1215 174 l 868 -174 z "},"Ć":{"ha":1701,"x_min":0,"x_max":0,"o":"m 0 0 l 1563 0 l 1563 174 l 1389 347 l 347 347 z m 0 174 l 347 521 l 347 868 l 521 1042 l 1389 1042 l 1563 1215 l 1563 1389 l 347 1389 l 0 1042 l 0 781 z m 694 1563 l 868 1563 l 1042 1736 l 1042 1910 l 868 1910 l 694 1736 z "},"ć":{"ha":1701,"x_min":0,"x_max":0,"o":"m 0 0 l 1563 0 l 1563 174 l 1389 347 l 347 347 z m 0 174 l 347 521 l 347 868 l 521 1042 l 1389 1042 l 1563 1215 l 1563 1389 l 347 1389 l 0 1042 l 0 781 z m 694 1563 l 868 1563 l 1042 1736 l 1042 1910 l 868 1910 l 694 1736 z "},"Ĉ":{"ha":1701,"x_min":0,"x_max":0,"o":"m 0 0 l 1563 0 l 1563 174 l 1389 347 l 347 347 z m 0 174 l 347 521 l 347 868 l 521 1042 l 1389 1042 l 1563 1215 l 1563 1389 l 347 1389 l 0 1042 l 0 781 z m 521 1563 l 694 1563 l 868 1736 l 1042 1563 l 1215 1563 l 1215 1736 l 1042 1910 l 694 1910 l 521 1736 z "},"ĉ":{"ha":1701,"x_min":0,"x_max":0,"o":"m 0 0 l 1563 0 l 1563 174 l 1389 347 l 347 347 z m 0 174 l 347 521 l 347 868 l 521 1042 l 1389 1042 l 1563 1215 l 1563 1389 l 347 1389 l 0 1042 l 0 781 z m 521 1563 l 694 1563 l 868 1736 l 1042 1563 l 1215 1563 l 1215 1736 l 1042 1910 l 694 1910 l 521 1736 z "},"Ċ":{"ha":1701,"x_min":0,"x_max":0,"o":"m 0 0 l 1563 0 l 1563 174 l 1389 347 l 347 347 z m 0 174 l 347 521 l 347 868 l 521 1042 l 1389 1042 l 1563 1215 l 1563 1389 l 347 1389 l 0 1042 l 0 781 z m 694 1563 l 1042 1563 l 1042 1910 l 694 1910 z "},"ċ":{"ha":1701,"x_min":0,"x_max":0,"o":"m 0 0 l 1563 0 l 1563 174 l 1389 347 l 347 347 z m 0 174 l 347 521 l 347 868 l 521 1042 l 1389 1042 l 1563 1215 l 1563 1389 l 347 1389 l 0 1042 l 0 781 z m 694 1563 l 1042 1563 l 1042 1910 l 694 1910 z "},"Č":{"ha":1701,"x_min":0,"x_max":0,"o":"m 0 0 l 1563 0 l 1563 174 l 1389 347 l 347 347 z m 0 174 l 347 521 l 347 868 l 521 1042 l 1389 1042 l 1563 1215 l 1563 1389 l 347 1389 l 0 1042 l 0 781 z m 694 1563 l 1042 1563 l 1215 1736 l 1215 1910 l 1042 1910 l 868 1736 l 694 1910 l 521 1910 l 521 1736 z "},"č":{"ha":1701,"x_min":0,"x_max":0,"o":"m 0 0 l 1563 0 l 1563 174 l 1389 347 l 347 347 z m 0 174 l 347 521 l 347 868 l 521 1042 l 1389 1042 l 1563 1215 l 1563 1389 l 347 1389 l 0 1042 l 0 781 z m 694 1563 l 1042 1563 l 1215 1736 l 1215 1910 l 1042 1910 l 868 1736 l 694 1910 l 521 1910 l 521 1736 z "},"Ď":{"ha":1701,"x_min":0,"x_max":0,"o":"m 0 0 l 1042 0 l 1563 521 l 1563 868 l 1042 1389 l 0 1389 l 0 1024 l 0 174 l 347 521 l 347 1042 l 868 1042 l 1215 694 l 868 347 l 347 347 z m 347 1563 l 694 1563 l 868 1736 l 868 1910 l 694 1910 l 521 1736 l 347 1910 l 174 1910 l 174 1736 z "},"ď":{"ha":1701,"x_min":0,"x_max":0,"o":"m 0 0 l 1042 0 l 1563 521 l 1563 868 l 1042 1389 l 0 1389 l 0 1024 l 0 174 l 347 521 l 347 1042 l 868 1042 l 1215 694 l 868 347 l 347 347 z m 347 1563 l 694 1563 l 868 1736 l 868 1910 l 694 1910 l 521 1736 l 347 1910 l 174 1910 l 174 1736 z "},"Đ":{"ha":2048,"x_min":0,"x_max":0,"o":"m 347 0 l 1389 0 l 1910 521 l 1910 868 l 1389 1389 l 347 1389 l 347 868 l 0 868 l 0 764 l 0 521 l 347 521 l 347 174 l 694 521 l 694 1042 l 1215 1042 l 1563 694 l 1215 347 l 694 347 z "},"đ":{"ha":2048,"x_min":0,"x_max":0,"o":"m 347 0 l 1389 0 l 1910 521 l 1910 868 l 1389 1389 l 347 1389 l 347 868 l 0 868 l 0 764 l 0 521 l 347 521 l 347 174 l 694 521 l 694 1042 l 1215 1042 l 1563 694 l 1215 347 l 694 347 z "},"Ē":{"ha":1701,"x_min":0,"x_max":0,"o":"m 0 0 l 1563 0 l 1563 174 l 1389 347 l 694 347 l 868 521 l 1389 521 l 1389 868 l 868 868 l 347 1389 l 0 1389 l 0 1215 l 521 694 l 0 174 l 0 122 z m 868 1042 l 1389 1042 l 1563 1215 l 1563 1389 l 521 1389 z m 174 1563 l 1389 1563 l 1389 1736 l 174 1736 z "},"ē":{"ha":1701,"x_min":0,"x_max":0,"o":"m 0 0 l 1563 0 l 1563 174 l 1389 347 l 694 347 l 868 521 l 1389 521 l 1389 868 l 868 868 l 347 1389 l 0 1389 l 0 1215 l 521 694 l 0 174 l 0 122 z m 868 1042 l 1389 1042 l 1563 1215 l 1563 1389 l 521 1389 z m 174 1563 l 1389 1563 l 1389 1736 l 174 1736 z "},"Ĕ":{"ha":1701,"x_min":0,"x_max":0,"o":"m 0 0 l 1563 0 l 1563 174 l 1389 347 l 694 347 l 868 521 l 1389 521 l 1389 868 l 868 868 l 347 1389 l 0 1389 l 0 1215 l 521 694 l 0 174 l 0 122 z m 868 1042 l 1389 1042 l 1563 1215 l 1563 1389 l 521 1389 z m 463 1572 l 1157 1572 l 1331 1746 l 1331 1919 l 1157 1919 l 983 1746 l 636 1746 l 463 1919 l 289 1919 l 289 1746 z "},"ĕ":{"ha":1701,"x_min":0,"x_max":0,"o":"m 0 0 l 1563 0 l 1563 174 l 1389 347 l 694 347 l 868 521 l 1389 521 l 1389 868 l 868 868 l 347 1389 l 0 1389 l 0 1215 l 521 694 l 0 174 l 0 122 z m 868 1042 l 1389 1042 l 1563 1215 l 1563 1389 l 521 1389 z m 463 1572 l 1157 1572 l 1331 1746 l 1331 1919 l 1157 1919 l 983 1746 l 636 1746 l 463 1919 l 289 1919 l 289 1746 z "},"Ė":{"ha":1701,"x_min":0,"x_max":0,"o":"m 0 0 l 1563 0 l 1563 174 l 1389 347 l 694 347 l 868 521 l 1389 521 l 1389 868 l 868 868 l 347 1389 l 0 1389 l 0 1215 l 521 694 l 0 174 l 0 122 z m 868 1042 l 1389 1042 l 1563 1215 l 1563 1389 l 521 1389 z m 694 1563 l 1042 1563 l 1042 1910 l 694 1910 z "},"ė":{"ha":1701,"x_min":0,"x_max":0,"o":"m 0 0 l 1563 0 l 1563 174 l 1389 347 l 694 347 l 868 521 l 1389 521 l 1389 868 l 868 868 l 347 1389 l 0 1389 l 0 1215 l 521 694 l 0 174 l 0 122 z m 868 1042 l 1389 1042 l 1563 1215 l 1563 1389 l 521 1389 z m 694 1563 l 1042 1563 l 1042 1910 l 694 1910 z "},"Ę":{"ha":1701,"x_min":0,"x_max":0,"o":"m 1215 -347 l 1563 -347 l 1389 -174 l 1563 0 l 1563 174 l 1389 347 l 694 347 l 868 521 l 1389 521 l 1389 868 l 868 868 l 347 1389 l 0 1389 l 0 1215 l 521 694 l 0 174 l 0 122 l 0 0 l 1215 0 l 1042 -174 z m 868 1042 l 1389 1042 l 1563 1215 l 1563 1389 l 521 1389 z "},"ę":{"ha":1701,"x_min":0,"x_max":0,"o":"m 1215 -347 l 1563 -347 l 1389 -174 l 1563 0 l 1563 174 l 1389 347 l 694 347 l 868 521 l 1389 521 l 1389 868 l 868 868 l 347 1389 l 0 1389 l 0 1215 l 521 694 l 0 174 l 0 122 l 0 0 l 1215 0 l 1042 -174 z m 868 1042 l 1389 1042 l 1563 1215 l 1563 1389 l 521 1389 z "},"Ě":{"ha":1701,"x_min":0,"x_max":0,"o":"m 0 0 l 1563 0 l 1563 174 l 1389 347 l 694 347 l 868 521 l 1389 521 l 1389 868 l 868 868 l 347 1389 l 0 1389 l 0 1215 l 521 694 l 0 174 l 0 122 z m 868 1042 l 1389 1042 l 1563 1215 l 1563 1389 l 521 1389 z m 694 1563 l 1042 1563 l 1215 1736 l 1215 1910 l 1042 1910 l 868 1736 l 694 1910 l 521 1910 l 521 1736 z "},"ě":{"ha":1701,"x_min":0,"x_max":0,"o":"m 0 0 l 1563 0 l 1563 174 l 1389 347 l 694 347 l 868 521 l 1389 521 l 1389 868 l 868 868 l 347 1389 l 0 1389 l 0 1215 l 521 694 l 0 174 l 0 122 z m 868 1042 l 1389 1042 l 1563 1215 l 1563 1389 l 521 1389 z m 694 1563 l 1042 1563 l 1215 1736 l 1215 1910 l 1042 1910 l 868 1736 l 694 1910 l 521 1910 l 521 1736 z "},"Ĝ":{"ha":1701,"x_min":0,"x_max":0,"o":"m 694 521 l 1215 521 l 1563 868 l 868 868 l 694 694 z m 174 0 l 1389 0 l 1563 174 l 1563 694 l 1215 347 l 347 347 l 347 694 l 694 1042 l 1389 1042 l 1563 1215 l 1563 1389 l 521 1389 l 0 868 l 0 659 l 0 174 z m 694 1563 l 868 1563 l 1042 1736 l 1215 1563 l 1389 1563 l 1389 1736 l 1215 1910 l 868 1910 l 694 1736 z "},"ĝ":{"ha":1701,"x_min":0,"x_max":0,"o":"m 694 521 l 1215 521 l 1563 868 l 868 868 l 694 694 z m 174 0 l 1389 0 l 1563 174 l 1563 694 l 1215 347 l 347 347 l 347 694 l 694 1042 l 1389 1042 l 1563 1215 l 1563 1389 l 521 1389 l 0 868 l 0 659 l 0 174 z m 694 1563 l 868 1563 l 1042 1736 l 1215 1563 l 1389 1563 l 1389 1736 l 1215 1910 l 868 1910 l 694 1736 z "},"Ğ":{"ha":1701,"x_min":0,"x_max":0,"o":"m 694 521 l 1215 521 l 1563 868 l 868 868 l 694 694 z m 174 0 l 1389 0 l 1563 174 l 1563 694 l 1215 347 l 347 347 l 347 694 l 694 1042 l 1389 1042 l 1563 1215 l 1563 1389 l 521 1389 l 0 868 l 0 659 l 0 174 z m 694 1563 l 1389 1563 l 1563 1736 l 1563 1910 l 1389 1910 l 1215 1736 l 868 1736 l 694 1910 l 521 1910 l 521 1736 z "},"ğ":{"ha":1701,"x_min":0,"x_max":0,"o":"m 694 521 l 1215 521 l 1563 868 l 868 868 l 694 694 z m 174 0 l 1389 0 l 1563 174 l 1563 694 l 1215 347 l 347 347 l 347 694 l 694 1042 l 1389 1042 l 1563 1215 l 1563 1389 l 521 1389 l 0 868 l 0 659 l 0 174 z m 694 1563 l 868 1563 l 1042 1736 l 1215 1563 l 1389 1563 l 1389 1736 l 1215 1910 l 868 1910 l 694 1736 z "},"Ġ":{"ha":1701,"x_min":0,"x_max":0,"o":"m 694 521 l 1215 521 l 1563 868 l 868 868 l 694 694 z m 174 0 l 1389 0 l 1563 174 l 1563 694 l 1215 347 l 347 347 l 347 694 l 694 1042 l 1389 1042 l 1563 1215 l 1563 1389 l 521 1389 l 0 868 l 0 659 l 0 174 z m 868 1563 l 1215 1563 l 1215 1910 l 868 1910 z "},"ġ":{"ha":1701,"x_min":0,"x_max":0,"o":"m 694 521 l 1215 521 l 1563 868 l 868 868 l 694 694 z m 174 0 l 1389 0 l 1563 174 l 1563 694 l 1215 347 l 347 347 l 347 694 l 694 1042 l 1389 1042 l 1563 1215 l 1563 1389 l 521 1389 l 0 868 l 0 659 l 0 174 z m 868 1563 l 1215 1563 l 1215 1910 l 868 1910 z "},"Ģ":{"ha":1701,"x_min":0,"x_max":0,"o":"m 694 521 l 1215 521 l 1563 868 l 868 868 l 694 694 z m 694 -521 l 868 -521 l 1042 -347 l 1042 0 l 1389 0 l 1563 174 l 1563 694 l 1215 347 l 347 347 l 347 694 l 694 1042 l 1389 1042 l 1563 1215 l 1563 1389 l 521 1389 l 0 868 l 0 659 l 0 174 l 174 0 l 694 0 l 694 -174 l 868 -174 l 694 -347 z "},"ģ":{"ha":1701,"x_min":0,"x_max":0,"o":"m 694 521 l 1215 521 l 1563 868 l 868 868 l 694 694 z m 694 -521 l 868 -521 l 1042 -347 l 1042 0 l 1389 0 l 1563 174 l 1563 694 l 1215 347 l 347 347 l 347 694 l 694 1042 l 1389 1042 l 1563 1215 l 1563 1389 l 521 1389 l 0 868 l 0 659 l 0 174 l 174 0 l 694 0 l 694 -174 l 868 -174 l 694 -347 z "},"Ĥ":{"ha":1701,"x_min":0,"x_max":0,"o":"m 0 0 l 347 0 l 347 521 l 694 868 l 347 868 l 347 1389 l 0 1389 l 0 972 z m 1215 0 l 1563 0 l 1563 1389 l 1215 1389 l 1215 868 l 868 868 l 521 521 l 1215 521 z m 435 1558 l 609 1558 l 783 1732 l 956 1558 l 1130 1558 l 1130 1732 l 956 1906 l 609 1906 l 435 1732 z "},"ĥ":{"ha":1701,"x_min":0,"x_max":0,"o":"m 0 0 l 347 0 l 347 521 l 694 868 l 347 868 l 347 1389 l 0 1389 l 0 972 z m 1215 0 l 1563 0 l 1563 1389 l 1215 1389 l 1215 868 l 868 868 l 521 521 l 1215 521 z m 435 1558 l 609 1558 l 783 1732 l 956 1558 l 1130 1558 l 1130 1732 l 956 1906 l 609 1906 l 435 1732 z "},"Ħ":{"ha":1874,"x_min":0,"x_max":0,"o":"m 174 0 l 521 0 l 521 521 l 868 868 l 521 868 l 521 1042 l 1389 1042 l 1389 868 l 1042 868 l 694 521 l 1389 521 l 1389 0 l 1736 0 l 1736 1042 l 1910 1042 l 1910 1215 l 1736 1215 l 1736 1389 l 1389 1389 l 1389 1215 l 521 1215 l 521 1389 l 174 1389 l 174 1215 l 0 1215 l 0 1164 l 0 1042 l 174 1042 z "},"ħ":{"ha":1874,"x_min":0,"x_max":0,"o":"m 174 0 l 521 0 l 521 521 l 868 868 l 521 868 l 521 1042 l 1389 1042 l 1389 868 l 1042 868 l 694 521 l 1389 521 l 1389 0 l 1736 0 l 1736 1042 l 1910 1042 l 1910 1215 l 1736 1215 l 1736 1389 l 1389 1389 l 1389 1215 l 521 1215 l 521 1389 l 174 1389 l 174 1215 l 0 1215 l 0 1164 l 0 1042 l 174 1042 z "},"Ĩ":{"ha":1180,"x_min":0,"x_max":0,"o":"m 347 0 l 694 0 l 694 1389 l 347 1389 z m 0 1563 l 174 1563 l 347 1736 l 521 1563 l 868 1563 l 1042 1736 l 1042 1910 l 868 1910 l 694 1736 l 521 1910 l 174 1910 l 0 1736 l 0 1685 z "},"ĩ":{"ha":1180,"x_min":0,"x_max":0,"o":"m 347 0 l 694 0 l 694 1389 l 347 1389 z m 0 1563 l 174 1563 l 347 1736 l 521 1563 l 868 1563 l 1042 1736 l 1042 1910 l 868 1910 l 694 1736 l 521 1910 l 174 1910 l 0 1736 l 0 1685 z "},"Ī":{"ha":833,"x_min":0,"x_max":0,"o":"m 174 0 l 521 0 l 521 1389 l 174 1389 l 174 868 z m 0 1563 l 694 1563 l 694 1736 l 0 1736 l 0 1685 z "},"ī":{"ha":833,"x_min":0,"x_max":0,"o":"m 174 0 l 521 0 l 521 1389 l 174 1389 l 174 868 z m 0 1563 l 694 1563 l 694 1736 l 0 1736 l 0 1685 z "},"Ĭ":{"ha":1180,"x_min":0,"x_max":0,"o":"m 347 0 l 694 0 l 694 1389 l 347 1389 z m 174 1563 l 868 1563 l 1042 1736 l 1042 1910 l 868 1910 l 694 1736 l 347 1736 l 174 1910 l 0 1910 l 0 1858 l 0 1736 z "},"ĭ":{"ha":1180,"x_min":0,"x_max":0,"o":"m 347 0 l 694 0 l 694 1389 l 347 1389 z m 174 1563 l 868 1563 l 1042 1736 l 1042 1910 l 868 1910 l 694 1736 l 347 1736 l 174 1910 l 0 1910 l 0 1858 l 0 1736 z "},"Į":{"ha":486,"x_min":0,"x_max":0,"o":"m 0 -347 l 347 -347 l 174 -174 l 347 0 l 347 1389 l 0 1389 l 0 0 l -174 -174 z "},"į":{"ha":486,"x_min":0,"x_max":0,"o":"m 0 -347 l 347 -347 l 174 -174 l 347 0 l 347 1389 l 0 1389 l 0 0 l -174 -174 z "},"İ":{"ha":486,"x_min":0,"x_max":0,"o":"m 0 0 l 347 0 l 347 1389 l 0 1389 l 0 972 z m 0 1563 l 347 1563 l 347 1910 l 0 1910 l 0 1805 z "},"ı":{"ha":486,"x_min":0,"x_max":0,"o":"m 0 0 l 347 0 l 347 1389 l 0 1389 l 0 972 z m 0 1563 l 347 1563 l 347 1910 l 0 1910 l 0 1805 z "},"Ĳ":{"ha":2222,"x_min":0,"x_max":0,"o":"m 521 0 l 1042 0 l 1389 347 l 694 347 l 521 174 z m 0 0 l 347 0 l 347 1389 l 0 1389 l 0 972 z m 1215 0 l 1736 0 l 2083 347 l 2083 1389 l 1736 1389 l 1736 521 z "},"ĳ":{"ha":2222,"x_min":0,"x_max":0,"o":"m 521 0 l 1042 0 l 1389 347 l 694 347 l 521 174 z m 0 0 l 347 0 l 347 1389 l 0 1389 l 0 972 z m 1215 0 l 1736 0 l 2083 347 l 2083 1389 l 1736 1389 l 1736 521 z "},"Ĵ":{"ha":1701,"x_min":0,"x_max":0,"o":"m 0 0 l 521 0 l 868 347 l 174 347 l 0 174 l 0 122 z m 694 0 l 1215 0 l 1563 347 l 1563 1389 l 1215 1389 l 1215 521 z m 1042 1563 l 1215 1563 l 1389 1736 l 1563 1563 l 1736 1563 l 1736 1736 l 1563 1910 l 1215 1910 l 1042 1736 z "},"ĵ":{"ha":1701,"x_min":0,"x_max":0,"o":"m 0 0 l 521 0 l 868 347 l 174 347 l 0 174 l 0 122 z m 694 0 l 1215 0 l 1563 347 l 1563 1389 l 1215 1389 l 1215 521 z m 1042 1563 l 1215 1563 l 1389 1736 l 1563 1563 l 1736 1563 l 1736 1736 l 1563 1910 l 1215 1910 l 1042 1736 z "},"Ķ":{"ha":1701,"x_min":0,"x_max":0,"o":"m 521 -521 l 694 -521 l 868 -347 l 868 0 l 751 0 l 521 0 l 521 -174 l 694 -174 l 521 -347 z m 0 0 l 347 0 l 347 1389 l 0 1389 l 0 972 z m 1215 0 l 1563 0 l 1563 174 l 1042 694 l 1563 1215 l 1563 1389 l 1215 1389 l 521 694 z "},"ķ":{"ha":1701,"x_min":0,"x_max":0,"o":"m 521 -521 l 694 -521 l 868 -347 l 868 0 l 751 0 l 521 0 l 521 -174 l 694 -174 l 521 -347 z m 0 0 l 347 0 l 347 1389 l 0 1389 l 0 972 z m 1215 0 l 1563 0 l 1563 174 l 1042 694 l 1563 1215 l 1563 1389 l 1215 1389 l 521 694 z "},"ĸ":{"ha":1701,"x_min":0,"x_max":0,"o":"m 0 0 l 347 0 l 347 1389 l 0 1389 l 0 972 z m 1215 0 l 1563 0 l 1563 174 l 1042 694 l 1563 1215 l 1563 1389 l 1215 1389 l 521 694 z "},"Ĺ":{"ha":1701,"x_min":0,"x_max":0,"o":"m 174 0 l 1563 0 l 1563 174 l 1389 347 l 521 347 z m 0 0 l 347 347 l 347 1389 l 0 1389 l 0 972 z m 0 1563 l 174 1563 l 347 1736 l 347 1910 l 174 1910 l 0 1736 l 0 1685 z "},"ĺ":{"ha":1701,"x_min":0,"x_max":0,"o":"m 174 0 l 1563 0 l 1563 174 l 1389 347 l 521 347 z m 0 0 l 347 347 l 347 1389 l 0 1389 l 0 972 z m 0 1563 l 174 1563 l 347 1736 l 347 1910 l 174 1910 l 0 1736 l 0 1685 z "},"Ļ":{"ha":1701,"x_min":0,"x_max":0,"o":"m 694 -521 l 868 -521 l 1042 -347 l 1042 0 l 1563 0 l 1563 174 l 1389 347 l 521 347 l 174 0 l 694 0 l 694 -174 l 868 -174 l 694 -347 z m 0 0 l 347 347 l 347 1389 l 0 1389 l 0 972 z "},"ļ":{"ha":1701,"x_min":0,"x_max":0,"o":"m 694 -521 l 868 -521 l 1042 -347 l 1042 0 l 1563 0 l 1563 174 l 1389 347 l 521 347 l 174 0 l 694 0 l 694 -174 l 868 -174 l 694 -347 z m 0 0 l 347 347 l 347 1389 l 0 1389 l 0 972 z "},"Ľ":{"ha":1701,"x_min":0,"x_max":0,"o":"m 174 0 l 1563 0 l 1563 174 l 1389 347 l 521 347 z m 0 0 l 347 347 l 347 1389 l 0 1389 l 0 972 z m 694 868 l 868 868 l 1042 1042 l 1042 1389 l 694 1389 l 694 1215 l 868 1215 l 694 1042 z "},"ľ":{"ha":1701,"x_min":0,"x_max":0,"o":"m 174 0 l 1563 0 l 1563 174 l 1389 347 l 521 347 z m 0 0 l 347 347 l 347 1389 l 0 1389 l 0 972 z m 694 868 l 868 868 l 1042 1042 l 1042 1389 l 694 1389 l 694 1215 l 868 1215 l 694 1042 z "},"Ŀ":{"ha":1701,"x_min":0,"x_max":0,"o":"m 174 0 l 1563 0 l 1563 174 l 1389 347 l 521 347 z m 694 694 l 1042 694 l 1042 1042 l 694 1042 z m 0 0 l 347 347 l 347 1389 l 0 1389 l 0 972 z "},"ŀ":{"ha":1701,"x_min":0,"x_max":0,"o":"m 174 0 l 1563 0 l 1563 174 l 1389 347 l 521 347 z m 694 694 l 1042 694 l 1042 1042 l 694 1042 z m 0 0 l 347 347 l 347 1389 l 0 1389 l 0 972 z "},"Ł":{"ha":2048,"x_min":0,"x_max":0,"o":"m 521 0 l 1910 0 l 1910 174 l 1736 347 l 868 347 z m 347 0 l 694 347 l 694 694 l 347 347 z m 347 1042 l 694 1389 l 347 1389 z m 0 347 l 174 347 l 1042 1215 l 1042 1389 l 868 1389 l 0 521 l 0 469 z "},"ł":{"ha":2048,"x_min":0,"x_max":0,"o":"m 521 0 l 1910 0 l 1910 174 l 1736 347 l 868 347 z m 347 0 l 694 347 l 694 694 l 347 347 z m 347 1042 l 694 1389 l 347 1389 z m 0 347 l 174 347 l 1042 1215 l 1042 1389 l 868 1389 l 0 521 l 0 469 z "},"Ń":{"ha":1701,"x_min":0,"x_max":0,"o":"m 0 0 l 347 0 l 347 694 l 0 1042 l 0 730 z m 1215 0 l 1563 0 l 1563 1389 l 1215 1389 l 1215 521 l 347 1389 l 0 1389 l 0 1337 l 0 1215 z m 694 1563 l 868 1563 l 1042 1736 l 1042 1910 l 868 1910 l 694 1736 z "},"ń":{"ha":1701,"x_min":0,"x_max":0,"o":"m 0 0 l 347 0 l 347 694 l 0 1042 l 0 730 z m 1215 0 l 1563 0 l 1563 1389 l 1215 1389 l 1215 521 l 347 1389 l 0 1389 l 0 1337 l 0 1215 z m 694 1563 l 868 1563 l 1042 1736 l 1042 1910 l 868 1910 l 694 1736 z "},"Ņ":{"ha":1701,"x_min":0,"x_max":0,"o":"m 694 -521 l 868 -521 l 1042 -347 l 1042 0 l 925 0 l 694 0 l 694 -174 l 868 -174 l 694 -347 z m 0 0 l 347 0 l 347 694 l 0 1042 l 0 730 z m 1215 0 l 1563 0 l 1563 1389 l 1215 1389 l 1215 521 l 347 1389 l 0 1389 l 0 1337 l 0 1215 z "},"ņ":{"ha":1701,"x_min":0,"x_max":0,"o":"m 694 -521 l 868 -521 l 1042 -347 l 1042 0 l 925 0 l 694 0 l 694 -174 l 868 -174 l 694 -347 z m 0 0 l 347 0 l 347 694 l 0 1042 l 0 730 z m 1215 0 l 1563 0 l 1563 1389 l 1215 1389 l 1215 521 l 347 1389 l 0 1389 l 0 1337 l 0 1215 z "},"Ň":{"ha":1701,"x_min":0,"x_max":0,"o":"m 0 0 l 347 0 l 347 694 l 0 1042 l 0 730 z m 1215 0 l 1563 0 l 1563 1389 l 1215 1389 l 1215 521 l 347 1389 l 0 1389 l 0 1337 l 0 1215 z m 618 1563 l 966 1563 l 1139 1736 l 1139 1910 l 966 1910 l 792 1736 l 618 1910 l 445 1910 l 445 1736 z "},"ň":{"ha":1701,"x_min":0,"x_max":0,"o":"m 0 0 l 347 0 l 347 694 l 0 1042 l 0 730 z m 1215 0 l 1563 0 l 1563 1389 l 1215 1389 l 1215 521 l 347 1389 l 0 1389 l 0 1337 l 0 1215 z m 618 1563 l 966 1563 l 1139 1736 l 1139 1910 l 966 1910 l 792 1736 l 618 1910 l 445 1910 l 445 1736 z "},"ŉ":{"ha":2222,"x_min":0,"x_max":0,"o":"m 521 0 l 868 0 l 868 694 l 521 1042 z m 0 868 l 174 868 l 347 1042 l 347 1389 l 0 1389 l 0 1215 l 174 1215 l 0 1042 l 0 990 z m 1736 0 l 2083 0 l 2083 1389 l 1736 1389 l 1736 521 l 868 1389 l 521 1389 l 521 1215 z "},"Ō":{"ha":1701,"x_min":0,"x_max":0,"o":"m 174 0 l 1389 0 l 1563 174 l 1563 1215 l 1215 868 l 1215 347 l 521 347 z m 0 0 l 347 347 l 347 1042 l 1215 1042 l 1563 1389 l 174 1389 l 0 1215 l 0 850 z m 347 1563 l 1215 1563 l 1215 1736 l 347 1736 z "},"ō":{"ha":1701,"x_min":0,"x_max":0,"o":"m 174 0 l 1389 0 l 1563 174 l 1563 1215 l 1215 868 l 1215 347 l 521 347 z m 0 0 l 347 347 l 347 1042 l 1215 1042 l 1563 1389 l 174 1389 l 0 1215 l 0 850 z m 347 1563 l 1215 1563 l 1215 1736 l 347 1736 z "},"Ŏ":{"ha":1701,"x_min":0,"x_max":0,"o":"m 174 0 l 1389 0 l 1563 174 l 1563 1215 l 1215 868 l 1215 347 l 521 347 z m 0 0 l 347 347 l 347 1042 l 1215 1042 l 1563 1389 l 174 1389 l 0 1215 l 0 850 z m 463 1563 l 1157 1563 l 1331 1736 l 1331 1910 l 1157 1910 l 983 1736 l 636 1736 l 463 1910 l 289 1910 l 289 1736 z "},"ŏ":{"ha":1701,"x_min":0,"x_max":0,"o":"m 174 0 l 1389 0 l 1563 174 l 1563 1215 l 1215 868 l 1215 347 l 521 347 z m 0 0 l 347 347 l 347 1042 l 1215 1042 l 1563 1389 l 174 1389 l 0 1215 l 0 850 z m 463 1563 l 1157 1563 l 1331 1736 l 1331 1910 l 1157 1910 l 983 1736 l 636 1736 l 463 1910 l 289 1910 l 289 1736 z "},"Ő":{"ha":1701,"x_min":0,"x_max":0,"o":"m 174 0 l 1389 0 l 1563 174 l 1563 1215 l 1215 868 l 1215 347 l 521 347 z m 0 0 l 347 347 l 347 1042 l 1215 1042 l 1563 1389 l 174 1389 l 0 1215 l 0 850 z m 438 1568 l 612 1568 l 785 1742 l 785 1915 l 612 1915 l 438 1742 z m 959 1568 l 1133 1568 l 1306 1742 l 1306 1915 l 1133 1915 l 959 1742 z "},"ő":{"ha":1701,"x_min":0,"x_max":0,"o":"m 174 0 l 1389 0 l 1563 174 l 1563 1215 l 1215 868 l 1215 347 l 521 347 z m 0 0 l 347 347 l 347 1042 l 1215 1042 l 1563 1389 l 174 1389 l 0 1215 l 0 850 z m 438 1568 l 612 1568 l 785 1742 l 785 1915 l 612 1915 l 438 1742 z m 959 1568 l 1133 1568 l 1306 1742 l 1306 1915 l 1133 1915 l 959 1742 z "},"Œ":{"ha":2916,"x_min":0,"x_max":0,"o":"m 0 0 l 347 347 l 347 1042 l 1215 1042 l 1215 347 l 521 347 l 174 0 l 2778 0 l 2778 174 l 2604 347 l 1563 347 l 1563 521 l 2604 521 l 2604 868 l 1563 868 l 1563 1042 l 2604 1042 l 2778 1215 l 2778 1389 l 174 1389 l 0 1215 l 0 850 z "},"œ":{"ha":2916,"x_min":0,"x_max":0,"o":"m 0 0 l 347 347 l 347 1042 l 1215 1042 l 1215 347 l 521 347 l 174 0 l 2778 0 l 2778 174 l 2604 347 l 1563 347 l 1563 521 l 2604 521 l 2604 868 l 1563 868 l 1563 1042 l 2604 1042 l 2778 1215 l 2778 1389 l 174 1389 l 0 1215 l 0 850 z "},"Ŕ":{"ha":1701,"x_min":0,"x_max":0,"o":"m 0 0 l 347 0 l 347 1042 l 0 1389 l 0 972 z m 1215 0 l 1563 0 l 1563 174 l 1128 608 b 1214 694 1171 651 1199 680 l 1215 694 l 1563 1042 l 1563 1389 l 174 1389 l 521 1042 l 1042 1042 l 868 868 l 521 868 l 521 521 l 694 521 z m 694 1563 l 868 1563 l 1042 1736 l 1042 1910 l 868 1910 l 694 1736 z "},"ŕ":{"ha":1701,"x_min":0,"x_max":0,"o":"m 0 0 l 347 0 l 347 1042 l 0 1389 l 0 972 z m 1215 0 l 1563 0 l 1563 174 l 1128 608 b 1214 694 1171 651 1199 680 l 1215 694 l 1563 1042 l 1563 1389 l 174 1389 l 521 1042 l 1042 1042 l 868 868 l 521 868 l 521 521 l 694 521 z m 694 1563 l 868 1563 l 1042 1736 l 1042 1910 l 868 1910 l 694 1736 z "},"Ŗ":{"ha":1701,"x_min":0,"x_max":0,"o":"m 521 -521 l 694 -521 l 868 -347 l 868 0 l 751 0 l 521 0 l 521 -174 l 694 -174 l 521 -347 z m 0 0 l 347 0 l 347 1042 l 0 1389 l 0 972 z m 1215 0 l 1563 0 l 1563 174 l 1128 608 b 1214 694 1171 651 1199 680 l 1215 694 l 1563 1042 l 1563 1389 l 174 1389 l 521 1042 l 1042 1042 l 868 868 l 521 868 l 521 521 l 694 521 z "},"ŗ":{"ha":1701,"x_min":0,"x_max":0,"o":"m 521 -521 l 694 -521 l 868 -347 l 868 0 l 751 0 l 521 0 l 521 -174 l 694 -174 l 521 -347 z m 0 0 l 347 0 l 347 1042 l 0 1389 l 0 972 z m 1215 0 l 1563 0 l 1563 174 l 1128 608 b 1214 694 1171 651 1199 680 l 1215 694 l 1563 1042 l 1563 1389 l 174 1389 l 521 1042 l 1042 1042 l 868 868 l 521 868 l 521 521 l 694 521 z "},"Ř":{"ha":1701,"x_min":0,"x_max":0,"o":"m 0 0 l 347 0 l 347 1042 l 0 1389 l 0 972 z m 1215 0 l 1563 0 l 1563 174 l 1128 608 b 1214 694 1171 651 1199 680 l 1215 694 l 1563 1042 l 1563 1389 l 174 1389 l 521 1042 l 1042 1042 l 868 868 l 521 868 l 521 521 l 694 521 z m 627 1563 l 974 1563 l 1147 1736 l 1147 1910 l 974 1910 l 800 1736 l 627 1910 l 453 1910 l 453 1736 z "},"ř":{"ha":1701,"x_min":0,"x_max":0,"o":"m 0 0 l 347 0 l 347 1042 l 0 1389 l 0 972 z m 1215 0 l 1563 0 l 1563 174 l 1128 608 b 1214 694 1171 651 1199 680 l 1215 694 l 1563 1042 l 1563 1389 l 174 1389 l 521 1042 l 1042 1042 l 868 868 l 521 868 l 521 521 l 694 521 z m 627 1563 l 974 1563 l 1147 1736 l 1147 1910 l 974 1910 l 800 1736 l 627 1910 l 453 1910 l 453 1736 z "},"Ś":{"ha":1701,"x_min":0,"x_max":0,"o":"m 0 0 l 1563 0 l 1563 174 l 347 1389 l 0 1389 l 0 1215 l 868 347 l 0 347 l 0 243 z m 868 1042 l 1563 1042 l 1563 1389 l 521 1389 z m 694 1563 l 868 1563 l 1042 1736 l 1042 1910 l 868 1910 l 694 1736 z "},"ś":{"ha":1701,"x_min":0,"x_max":0,"o":"m 0 0 l 1563 0 l 1563 174 l 347 1389 l 0 1389 l 0 1215 l 868 347 l 0 347 l 0 243 z m 868 1042 l 1563 1042 l 1563 1389 l 521 1389 z m 694 1563 l 868 1563 l 1042 1736 l 1042 1910 l 868 1910 l 694 1736 z "},"Ŝ":{"ha":1701,"x_min":0,"x_max":0,"o":"m 0 0 l 1563 0 l 1563 174 l 347 1389 l 0 1389 l 0 1215 l 868 347 l 0 347 l 0 243 z m 868 1042 l 1563 1042 l 1563 1389 l 521 1389 z m 437 1563 l 610 1563 l 784 1736 l 958 1563 l 1131 1563 l 1131 1736 l 958 1910 l 610 1910 l 437 1736 z "},"ŝ":{"ha":1701,"x_min":0,"x_max":0,"o":"m 0 0 l 1563 0 l 1563 174 l 347 1389 l 0 1389 l 0 1215 l 868 347 l 0 347 l 0 243 z m 868 1042 l 1563 1042 l 1563 1389 l 521 1389 z m 437 1563 l 610 1563 l 784 1736 l 958 1563 l 1131 1563 l 1131 1736 l 958 1910 l 610 1910 l 437 1736 z "},"Ş":{"ha":1701,"x_min":0,"x_max":0,"o":"m 694 -521 l 868 -521 l 1042 -347 l 1042 0 l 1563 0 l 1563 174 l 347 1389 l 0 1389 l 0 1215 l 868 347 l 0 347 l 0 243 l 0 0 l 694 0 l 694 -174 l 868 -174 l 694 -347 z m 868 1042 l 1563 1042 l 1563 1389 l 521 1389 z "},"ş":{"ha":1701,"x_min":0,"x_max":0,"o":"m 694 -521 l 868 -521 l 1042 -347 l 1042 0 l 1563 0 l 1563 174 l 347 1389 l 0 1389 l 0 1215 l 868 347 l 0 347 l 0 243 l 0 0 l 694 0 l 694 -174 l 868 -174 l 694 -347 z m 868 1042 l 1563 1042 l 1563 1389 l 521 1389 z "},"Š":{"ha":1701,"x_min":0,"x_max":0,"o":"m 0 0 l 1563 0 l 1563 174 l 347 1389 l 0 1389 l 0 1215 l 868 347 l 0 347 l 0 243 z m 868 1042 l 1563 1042 l 1563 1389 l 521 1389 z m 610 1563 l 958 1563 l 1131 1736 l 1131 1910 l 958 1910 l 784 1736 l 610 1910 l 437 1910 l 437 1736 z "},"š":{"ha":1701,"x_min":0,"x_max":0,"o":"m 0 0 l 1563 0 l 1563 174 l 347 1389 l 0 1389 l 0 1215 l 868 347 l 0 347 l 0 243 z m 868 1042 l 1563 1042 l 1563 1389 l 521 1389 z m 610 1563 l 958 1563 l 1131 1736 l 1131 1910 l 958 1910 l 784 1736 l 610 1910 l 437 1910 l 437 1736 z "},"Ţ":{"ha":1527,"x_min":0,"x_max":0,"o":"m 521 -521 l 694 -521 l 868 -347 l 868 1042 l 1215 1042 l 1389 1215 l 1389 1389 l 0 1389 l 0 1284 l 0 1042 l 521 1042 l 521 -174 l 694 -174 l 521 -347 z "},"ţ":{"ha":1527,"x_min":0,"x_max":0,"o":"m 521 -521 l 694 -521 l 868 -347 l 868 1042 l 1215 1042 l 1389 1215 l 1389 1389 l 0 1389 l 0 1284 l 0 1042 l 521 1042 l 521 -174 l 694 -174 l 521 -347 z "},"Ť":{"ha":1527,"x_min":0,"x_max":0,"o":"m 521 0 l 868 0 l 868 1042 l 1215 1042 l 1389 1215 l 1389 1389 l 0 1389 l 0 1284 l 0 1042 l 521 1042 z m 521 1563 l 868 1563 l 1042 1736 l 1042 1910 l 868 1910 l 694 1736 l 521 1910 l 347 1910 l 347 1736 z "},"ť":{"ha":1527,"x_min":0,"x_max":0,"o":"m 521 0 l 868 0 l 868 1042 l 1215 1042 l 1389 1215 l 1389 1389 l 0 1389 l 0 1284 l 0 1042 l 521 1042 z m 521 1563 l 868 1563 l 1042 1736 l 1042 1910 l 868 1910 l 694 1736 l 521 1910 l 347 1910 l 347 1736 z "},"Ŧ":{"ha":1527,"x_min":0,"x_max":0,"o":"m 521 0 l 868 0 l 868 521 l 1215 521 l 1215 694 l 868 694 l 868 1042 l 1215 1042 l 1389 1215 l 1389 1389 l 0 1389 l 0 1284 l 0 1042 l 521 1042 l 521 694 l 174 694 l 174 521 l 521 521 z "},"ŧ":{"ha":1527,"x_min":0,"x_max":0,"o":"m 521 0 l 868 0 l 868 521 l 1215 521 l 1215 694 l 868 694 l 868 1042 l 1215 1042 l 1389 1215 l 1389 1389 l 0 1389 l 0 1284 l 0 1042 l 521 1042 l 521 694 l 174 694 l 174 521 l 521 521 z "},"Ũ":{"ha":1701,"x_min":0,"x_max":0,"o":"m 174 0 l 694 0 l 1042 347 l 347 347 l 347 1389 l 0 1389 l 0 1024 l 0 174 z m 868 0 l 1389 0 l 1563 174 l 1563 1389 l 1215 1389 l 1215 347 z m 292 1563 l 465 1563 l 639 1736 l 812 1563 l 1160 1563 l 1333 1736 l 1333 1910 l 1160 1910 l 986 1736 l 812 1910 l 465 1910 l 292 1736 z "},"ũ":{"ha":1701,"x_min":0,"x_max":0,"o":"m 174 0 l 694 0 l 1042 347 l 347 347 l 347 1389 l 0 1389 l 0 1024 l 0 174 z m 868 0 l 1389 0 l 1563 174 l 1563 1389 l 1215 1389 l 1215 347 z m 292 1563 l 465 1563 l 639 1736 l 812 1563 l 1160 1563 l 1333 1736 l 1333 1910 l 1160 1910 l 986 1736 l 812 1910 l 465 1910 l 292 1736 z "},"Ū":{"ha":1701,"x_min":0,"x_max":0,"o":"m 174 0 l 694 0 l 1042 347 l 347 347 l 347 1389 l 0 1389 l 0 1024 l 0 174 z m 868 0 l 1389 0 l 1563 174 l 1563 1389 l 1215 1389 l 1215 347 z m 347 1563 l 1215 1563 l 1215 1736 l 347 1736 z "},"ū":{"ha":1701,"x_min":0,"x_max":0,"o":"m 174 0 l 694 0 l 1042 347 l 347 347 l 347 1389 l 0 1389 l 0 1024 l 0 174 z m 868 0 l 1389 0 l 1563 174 l 1563 1389 l 1215 1389 l 1215 347 z m 347 1563 l 1215 1563 l 1215 1736 l 347 1736 z "},"Ŭ":{"ha":1701,"x_min":0,"x_max":0,"o":"m 174 0 l 694 0 l 1042 347 l 347 347 l 347 1389 l 0 1389 l 0 1024 l 0 174 z m 868 0 l 1389 0 l 1563 174 l 1563 1389 l 1215 1389 l 1215 347 z m 347 1563 l 1215 1563 l 1389 1736 l 1389 1910 l 1215 1910 l 1042 1736 l 521 1736 l 347 1910 l 174 1910 l 174 1736 z "},"ŭ":{"ha":1701,"x_min":0,"x_max":0,"o":"m 174 0 l 694 0 l 1042 347 l 347 347 l 347 1389 l 0 1389 l 0 1024 l 0 174 z m 868 0 l 1389 0 l 1563 174 l 1563 1389 l 1215 1389 l 1215 347 z m 347 1563 l 1215 1563 l 1389 1736 l 1389 1910 l 1215 1910 l 1042 1736 l 521 1736 l 347 1910 l 174 1910 l 174 1736 z "},"Ů":{"ha":1701,"x_min":0,"x_max":0,"o":"m 174 0 l 694 0 l 1042 347 l 347 347 l 347 1389 l 0 1389 l 0 1024 l 0 174 z m 868 0 l 1389 0 l 1563 174 l 1563 1389 l 1215 1389 l 1215 347 z m 727 1563 l 901 1563 l 987 1649 l 987 1823 l 901 1910 l 727 1910 l 640 1823 l 640 1649 z "},"ů":{"ha":1701,"x_min":0,"x_max":0,"o":"m 174 0 l 694 0 l 1042 347 l 347 347 l 347 1389 l 0 1389 l 0 1024 l 0 174 z m 868 0 l 1389 0 l 1563 174 l 1563 1389 l 1215 1389 l 1215 347 z m 727 1563 l 901 1563 l 987 1649 l 987 1823 l 901 1910 l 727 1910 l 640 1823 l 640 1649 z "},"Ű":{"ha":1701,"x_min":0,"x_max":0,"o":"m 174 0 l 694 0 l 1042 347 l 347 347 l 347 1389 l 0 1389 l 0 1024 l 0 174 z m 868 0 l 1389 0 l 1563 174 l 1563 1389 l 1215 1389 l 1215 347 z m 347 1563 l 521 1563 l 694 1736 l 694 1910 l 521 1910 l 347 1736 z m 868 1563 l 1042 1563 l 1215 1736 l 1215 1910 l 1042 1910 l 868 1736 z "},"ű":{"ha":1701,"x_min":0,"x_max":0,"o":"m 174 0 l 694 0 l 1042 347 l 347 347 l 347 1389 l 0 1389 l 0 1024 l 0 174 z m 868 0 l 1389 0 l 1563 174 l 1563 1389 l 1215 1389 l 1215 347 z m 347 1563 l 521 1563 l 694 1736 l 694 1910 l 521 1910 l 347 1736 z m 868 1563 l 1042 1563 l 1215 1736 l 1215 1910 l 1042 1910 l 868 1736 z "},"Ų":{"ha":1701,"x_min":0,"x_max":0,"o":"m 174 0 l 694 0 l 1042 347 l 347 347 l 347 1389 l 0 1389 l 0 1024 l 0 174 z m 1042 -521 l 1215 -521 l 1215 -347 l 1042 -174 l 1215 -174 l 1563 174 l 1563 1389 l 1215 1389 l 1215 347 l 868 0 l 868 -347 z "},"ų":{"ha":1701,"x_min":0,"x_max":0,"o":"m 174 0 l 694 0 l 1042 347 l 347 347 l 347 1389 l 0 1389 l 0 1024 l 0 174 z m 1042 -521 l 1215 -521 l 1215 -347 l 1042 -174 l 1215 -174 l 1563 174 l 1563 1389 l 1215 1389 l 1215 347 l 868 0 l 868 -347 z "},"Ŵ":{"ha":2395,"x_min":0,"x_max":0,"o":"m 1215 0 l 1563 0 l 1563 174 l 347 1389 l 0 1389 l 0 1337 l 0 1215 z m 1910 0 l 2257 0 l 2257 174 l 1042 1389 l 694 1389 l 694 1215 z m 2257 347 l 2257 1389 l 1910 1389 l 1910 694 z m 868 1563 l 1042 1563 l 1215 1736 l 1389 1563 l 1563 1563 l 1563 1736 l 1389 1910 l 1042 1910 l 868 1736 z "},"ŵ":{"ha":2395,"x_min":0,"x_max":0,"o":"m 1215 0 l 1563 0 l 1563 174 l 347 1389 l 0 1389 l 0 1337 l 0 1215 z m 1910 0 l 2257 0 l 2257 174 l 1042 1389 l 694 1389 l 694 1215 z m 2257 347 l 2257 1389 l 1910 1389 l 1910 694 z m 868 1563 l 1042 1563 l 1215 1736 l 1389 1563 l 1563 1563 l 1563 1736 l 1389 1910 l 1042 1910 l 868 1736 z "},"Ŷ":{"ha":1701,"x_min":0,"x_max":0,"o":"m 434 781 l 694 1042 l 347 1389 l 0 1389 l 0 1337 l 0 1215 z m 521 0 l 868 0 l 868 521 l 1563 1215 l 1563 1389 l 1215 1389 l 521 694 z m 521 1563 l 694 1563 l 868 1736 l 1042 1563 l 1215 1563 l 1215 1736 l 1042 1910 l 694 1910 l 521 1736 z "},"ŷ":{"ha":1701,"x_min":0,"x_max":0,"o":"m 434 781 l 694 1042 l 347 1389 l 0 1389 l 0 1337 l 0 1215 z m 521 0 l 868 0 l 868 521 l 1563 1215 l 1563 1389 l 1215 1389 l 521 694 z m 521 1563 l 694 1563 l 868 1736 l 1042 1563 l 1215 1563 l 1215 1736 l 1042 1910 l 694 1910 l 521 1736 z "},"Ÿ":{"ha":1701,"x_min":0,"x_max":0,"o":"m 434 781 l 694 1042 l 347 1389 l 0 1389 l 0 1337 l 0 1215 z m 521 0 l 868 0 l 868 521 l 1563 1215 l 1563 1389 l 1215 1389 l 521 694 z m 347 1563 l 694 1563 l 694 1910 l 347 1910 z m 868 1563 l 1215 1563 l 1215 1910 l 868 1910 z "},"Ź":{"ha":1701,"x_min":0,"x_max":0,"o":"m 521 0 l 1563 0 l 1563 347 l 868 347 z m 0 0 l 347 0 l 1563 1215 l 1563 1389 l 0 1389 l 0 1284 l 0 1042 l 868 1042 l 0 174 z m 694 1563 l 868 1563 l 1042 1736 l 1042 1910 l 868 1910 l 694 1736 z "},"ź":{"ha":1701,"x_min":0,"x_max":0,"o":"m 521 0 l 1563 0 l 1563 347 l 868 347 z m 0 0 l 347 0 l 1563 1215 l 1563 1389 l 0 1389 l 0 1284 l 0 1042 l 868 1042 l 0 174 z m 694 1563 l 868 1563 l 1042 1736 l 1042 1910 l 868 1910 l 694 1736 z "},"Ż":{"ha":1701,"x_min":0,"x_max":0,"o":"m 521 0 l 1563 0 l 1563 347 l 868 347 z m 0 0 l 347 0 l 1563 1215 l 1563 1389 l 0 1389 l 0 1284 l 0 1042 l 868 1042 l 0 174 z m 694 1563 l 1042 1563 l 1042 1910 l 694 1910 z "},"ż":{"ha":1701,"x_min":0,"x_max":0,"o":"m 521 0 l 1563 0 l 1563 347 l 868 347 z m 0 0 l 347 0 l 1563 1215 l 1563 1389 l 0 1389 l 0 1284 l 0 1042 l 868 1042 l 0 174 z m 694 1563 l 1042 1563 l 1042 1910 l 694 1910 z "},"Ž":{"ha":1701,"x_min":0,"x_max":0,"o":"m 521 0 l 1563 0 l 1563 347 l 868 347 z m 0 0 l 347 0 l 1563 1215 l 1563 1389 l 0 1389 l 0 1284 l 0 1042 l 868 1042 l 0 174 z m 694 1563 l 1042 1563 l 1215 1736 l 1215 1910 l 1042 1910 l 868 1736 l 694 1910 l 521 1910 l 521 1736 z "},"ž":{"ha":1701,"x_min":0,"x_max":0,"o":"m 521 0 l 1563 0 l 1563 347 l 868 347 z m 0 0 l 347 0 l 1563 1215 l 1563 1389 l 0 1389 l 0 1284 l 0 1042 l 868 1042 l 0 174 z m 694 1563 l 1042 1563 l 1215 1736 l 1215 1910 l 1042 1910 l 868 1736 l 694 1910 l 521 1910 l 521 1736 z "},"ǃ":{"ha":486,"x_min":0,"x_max":0,"o":"m 0 0 l 347 0 l 347 347 l 0 347 l 0 243 z m 87 521 l 260 521 l 347 694 l 347 1389 l 0 1389 l 0 1180 l 0 694 z "},"Ǆ":{"ha":3263,"x_min":0,"x_max":0,"o":"m 2083 0 l 3125 0 l 3125 347 l 2431 347 z m 0 0 l 1042 0 l 1563 521 l 1563 868 l 1042 1389 l 0 1389 l 0 1024 l 0 174 l 347 521 l 347 1042 l 868 1042 l 1215 694 l 868 347 l 347 347 z m 1563 0 l 1910 0 l 3125 1215 l 3125 1389 l 1563 1389 l 1563 1042 l 2431 1042 l 1563 174 z m 2257 1563 l 2604 1563 l 2778 1736 l 2778 1910 l 2604 1910 l 2431 1736 l 2257 1910 l 2083 1910 l 2083 1736 z "},"ǅ":{"ha":3263,"x_min":0,"x_max":0,"o":"m 2083 0 l 3125 0 l 3125 347 l 2431 347 z m 0 0 l 1042 0 l 1563 521 l 1563 868 l 1042 1389 l 0 1389 l 0 1024 l 0 174 l 347 521 l 347 1042 l 868 1042 l 1215 694 l 868 347 l 347 347 z m 1563 0 l 1910 0 l 3125 1215 l 3125 1389 l 1563 1389 l 1563 1042 l 2431 1042 l 1563 174 z m 2257 1563 l 2604 1563 l 2778 1736 l 2778 1910 l 2604 1910 l 2431 1736 l 2257 1910 l 2083 1910 l 2083 1736 z "},"ǆ":{"ha":3263,"x_min":0,"x_max":0,"o":"m 2083 0 l 3125 0 l 3125 347 l 2431 347 z m 0 0 l 1042 0 l 1563 521 l 1563 868 l 1042 1389 l 0 1389 l 0 1024 l 0 174 l 347 521 l 347 1042 l 868 1042 l 1215 694 l 868 347 l 347 347 z m 1563 0 l 1910 0 l 3125 1215 l 3125 1389 l 1563 1389 l 1563 1042 l 2431 1042 l 1563 174 z m 2257 1563 l 2604 1563 l 2778 1736 l 2778 1910 l 2604 1910 l 2431 1736 l 2257 1910 l 2083 1910 l 2083 1736 z "},"Ǉ":{"ha":3437,"x_min":0,"x_max":0,"o":"m 174 0 l 1563 0 l 1563 174 l 1389 347 l 521 347 z m 1736 0 l 2257 0 l 2604 347 l 1910 347 l 1736 174 z m 0 0 l 347 347 l 347 1389 l 0 1389 l 0 972 z m 2431 0 l 2951 0 l 3299 347 l 3299 1389 l 2951 1389 l 2951 521 z "},"ǈ":{"ha":3437,"x_min":0,"x_max":0,"o":"m 174 0 l 1563 0 l 1563 174 l 1389 347 l 521 347 z m 1736 0 l 2257 0 l 2604 347 l 1910 347 l 1736 174 z m 0 0 l 347 347 l 347 1389 l 0 1389 l 0 972 z m 2431 0 l 2951 0 l 3299 347 l 3299 1389 l 2951 1389 l 2951 521 z "},"ǉ":{"ha":3437,"x_min":0,"x_max":0,"o":"m 174 0 l 1563 0 l 1563 174 l 1389 347 l 521 347 z m 1736 0 l 2257 0 l 2604 347 l 1910 347 l 1736 174 z m 0 0 l 347 347 l 347 1389 l 0 1389 l 0 972 z m 2431 0 l 2951 0 l 3299 347 l 3299 1389 l 2951 1389 l 2951 521 z "},"Ǌ":{"ha":3437,"x_min":0,"x_max":0,"o":"m 1736 0 l 2257 0 l 2604 347 l 1910 347 l 1736 174 z m 0 0 l 347 0 l 347 694 l 0 1042 l 0 730 z m 1215 0 l 1563 0 l 1563 1389 l 1215 1389 l 1215 521 l 347 1389 l 0 1389 l 0 1337 l 0 1215 z m 2431 0 l 2951 0 l 3299 347 l 3299 1389 l 2951 1389 l 2951 521 z "},"ǋ":{"ha":3437,"x_min":0,"x_max":0,"o":"m 1736 0 l 2257 0 l 2604 347 l 1910 347 l 1736 174 z m 0 0 l 347 0 l 347 694 l 0 1042 l 0 730 z m 1215 0 l 1563 0 l 1563 1389 l 1215 1389 l 1215 521 l 347 1389 l 0 1389 l 0 1337 l 0 1215 z m 2431 0 l 2951 0 l 3299 347 l 3299 1389 l 2951 1389 l 2951 521 z "},"ǌ":{"ha":3437,"x_min":0,"x_max":0,"o":"m 1736 0 l 2257 0 l 2604 347 l 1910 347 l 1736 174 z m 0 0 l 347 0 l 347 694 l 0 1042 l 0 730 z m 1215 0 l 1563 0 l 1563 1389 l 1215 1389 l 1215 521 l 347 1389 l 0 1389 l 0 1337 l 0 1215 z m 2431 0 l 2951 0 l 3299 347 l 3299 1389 l 2951 1389 l 2951 521 z "},"Ǎ":{"ha":1701,"x_min":0,"x_max":0,"o":"m 0 0 l 347 0 l 1215 868 l 1215 521 l 1042 521 l 694 174 l 1215 174 l 1215 0 l 1563 0 l 1563 1389 l 1215 1389 l 0 174 l 0 122 z m 1215 1563 l 1563 1563 l 1736 1736 l 1736 1910 l 1563 1910 l 1389 1736 l 1215 1910 l 1042 1910 l 1042 1736 z "},"ǎ":{"ha":1701,"x_min":0,"x_max":0,"o":"m 0 0 l 347 0 l 1215 868 l 1215 521 l 1042 521 l 694 174 l 1215 174 l 1215 0 l 1563 0 l 1563 1389 l 1215 1389 l 0 174 l 0 122 z m 1215 1563 l 1563 1563 l 1736 1736 l 1736 1910 l 1563 1910 l 1389 1736 l 1215 1910 l 1042 1910 l 1042 1736 z "},"Ǐ":{"ha":659,"x_min":0,"x_max":0,"o":"m 174 0 l 521 0 l 521 1389 l 174 1389 l 174 868 z m 174 1563 l 521 1563 l 694 1736 l 694 1910 l 521 1910 l 347 1736 l 174 1910 l 0 1910 l 0 1858 l 0 1736 z "},"ǐ":{"ha":659,"x_min":0,"x_max":0,"o":"m 174 0 l 521 0 l 521 1389 l 174 1389 l 174 868 z m 174 1563 l 521 1563 l 694 1736 l 694 1910 l 521 1910 l 347 1736 l 174 1910 l 0 1910 l 0 1858 l 0 1736 z "},"Ǒ":{"ha":1701,"x_min":0,"x_max":0,"o":"m 174 0 l 1389 0 l 1563 174 l 1563 1215 l 1215 868 l 1215 347 l 521 347 z m 0 0 l 347 347 l 347 1042 l 1215 1042 l 1563 1389 l 174 1389 l 0 1215 l 0 850 z m 642 1553 l 989 1553 l 1162 1727 l 1162 1900 l 989 1900 l 815 1727 l 642 1900 l 468 1900 l 468 1727 z "},"ǒ":{"ha":1701,"x_min":0,"x_max":0,"o":"m 174 0 l 1389 0 l 1563 174 l 1563 1215 l 1215 868 l 1215 347 l 521 347 z m 0 0 l 347 347 l 347 1042 l 1215 1042 l 1563 1389 l 174 1389 l 0 1215 l 0 850 z m 642 1553 l 989 1553 l 1162 1727 l 1162 1900 l 989 1900 l 815 1727 l 642 1900 l 468 1900 l 468 1727 z "},"Ǔ":{"ha":1701,"x_min":0,"x_max":0,"o":"m 174 0 l 694 0 l 1042 347 l 347 347 l 347 1389 l 0 1389 l 0 1024 l 0 174 z m 868 0 l 1389 0 l 1563 174 l 1563 1389 l 1215 1389 l 1215 347 z m 620 1563 l 967 1563 l 1141 1736 l 1141 1910 l 967 1910 l 793 1736 l 620 1910 l 446 1910 l 446 1736 z "},"ǔ":{"ha":1701,"x_min":0,"x_max":0,"o":"m 174 0 l 694 0 l 1042 347 l 347 347 l 347 1389 l 0 1389 l 0 1024 l 0 174 z m 868 0 l 1389 0 l 1563 174 l 1563 1389 l 1215 1389 l 1215 347 z m 620 1563 l 967 1563 l 1141 1736 l 1141 1910 l 967 1910 l 793 1736 l 620 1910 l 446 1910 l 446 1736 z "},"Ǖ":{"ha":1701,"x_min":0,"x_max":0,"o":"m 174 0 l 694 0 l 1042 347 l 347 347 l 347 1389 l 0 1389 l 0 1024 l 0 174 z m 868 0 l 1389 0 l 1563 174 l 1563 1389 l 1215 1389 l 1215 347 z m 347 1563 l 694 1563 l 694 1910 l 347 1910 z m 868 1563 l 1215 1563 l 1215 1910 l 868 1910 z m 347 2083 l 1215 2083 l 1215 2257 l 347 2257 z "},"ǖ":{"ha":1701,"x_min":0,"x_max":0,"o":"m 174 0 l 694 0 l 1042 347 l 347 347 l 347 1389 l 0 1389 l 0 1024 l 0 174 z m 868 0 l 1389 0 l 1563 174 l 1563 1389 l 1215 1389 l 1215 347 z m 347 1563 l 694 1563 l 694 1910 l 347 1910 z m 868 1563 l 1215 1563 l 1215 1910 l 868 1910 z m 347 2083 l 1215 2083 l 1215 2257 l 347 2257 z "},"Ǘ":{"ha":1701,"x_min":0,"x_max":0,"o":"m 174 0 l 694 0 l 1042 347 l 347 347 l 347 1389 l 0 1389 l 0 1024 l 0 174 z m 868 0 l 1389 0 l 1563 174 l 1563 1389 l 1215 1389 l 1215 347 z m 347 1563 l 694 1563 l 694 1910 l 347 1910 z m 868 1563 l 1215 1563 l 1215 1910 l 868 1910 z m 694 2083 l 868 2083 l 1042 2257 l 1042 2431 l 868 2431 l 694 2257 z "},"ǘ":{"ha":1701,"x_min":0,"x_max":0,"o":"m 174 0 l 694 0 l 1042 347 l 347 347 l 347 1389 l 0 1389 l 0 1024 l 0 174 z m 868 0 l 1389 0 l 1563 174 l 1563 1389 l 1215 1389 l 1215 347 z m 347 1563 l 694 1563 l 694 1910 l 347 1910 z m 868 1563 l 1215 1563 l 1215 1910 l 868 1910 z m 694 2083 l 868 2083 l 1042 2257 l 1042 2431 l 868 2431 l 694 2257 z "},"Ǚ":{"ha":1701,"x_min":0,"x_max":0,"o":"m 174 0 l 694 0 l 1042 347 l 347 347 l 347 1389 l 0 1389 l 0 1024 l 0 174 z m 868 0 l 1389 0 l 1563 174 l 1563 1389 l 1215 1389 l 1215 347 z m 347 1563 l 694 1563 l 694 1910 l 347 1910 z m 868 1563 l 1215 1563 l 1215 1910 l 868 1910 z m 610 2083 l 958 2083 l 1131 2257 l 1131 2431 l 958 2431 l 784 2257 l 610 2431 l 437 2431 l 437 2257 z "},"ǚ":{"ha":1701,"x_min":0,"x_max":0,"o":"m 174 0 l 694 0 l 1042 347 l 347 347 l 347 1389 l 0 1389 l 0 1024 l 0 174 z m 868 0 l 1389 0 l 1563 174 l 1563 1389 l 1215 1389 l 1215 347 z m 347 1563 l 694 1563 l 694 1910 l 347 1910 z m 868 1563 l 1215 1563 l 1215 1910 l 868 1910 z m 610 2083 l 958 2083 l 1131 2257 l 1131 2431 l 958 2431 l 784 2257 l 610 2431 l 437 2431 l 437 2257 z "},"Ǜ":{"ha":1701,"x_min":0,"x_max":0,"o":"m 174 0 l 694 0 l 1042 347 l 347 347 l 347 1389 l 0 1389 l 0 1024 l 0 174 z m 868 0 l 1389 0 l 1563 174 l 1563 1389 l 1215 1389 l 1215 347 z m 347 1563 l 694 1563 l 694 1910 l 347 1910 z m 868 1563 l 1215 1563 l 1215 1910 l 868 1910 z m 694 2083 l 868 2083 l 868 2257 l 694 2431 l 521 2431 l 521 2257 z "},"ǜ":{"ha":1701,"x_min":0,"x_max":0,"o":"m 174 0 l 694 0 l 1042 347 l 347 347 l 347 1389 l 0 1389 l 0 1024 l 0 174 z m 868 0 l 1389 0 l 1563 174 l 1563 1389 l 1215 1389 l 1215 347 z m 347 1563 l 694 1563 l 694 1910 l 347 1910 z m 868 1563 l 1215 1563 l 1215 1910 l 868 1910 z m 694 2083 l 868 2083 l 868 2257 l 694 2431 l 521 2431 l 521 2257 z "},"Ǟ":{"ha":1701,"x_min":0,"x_max":0,"o":"m 0 0 l 347 0 l 1215 868 l 1215 521 l 1042 521 l 694 174 l 1215 174 l 1215 0 l 1563 0 l 1563 1389 l 1215 1389 l 0 174 l 0 122 z m 955 1563 l 1302 1563 l 1302 1910 l 955 1910 z m 1476 1563 l 1823 1563 l 1823 1910 l 1476 1910 z m 868 2083 l 1910 2083 l 1910 2257 l 868 2257 z "},"ǟ":{"ha":1701,"x_min":0,"x_max":0,"o":"m 0 0 l 347 0 l 1215 868 l 1215 521 l 1042 521 l 694 174 l 1215 174 l 1215 0 l 1563 0 l 1563 1389 l 1215 1389 l 0 174 l 0 122 z m 955 1563 l 1302 1563 l 1302 1910 l 955 1910 z m 1476 1563 l 1823 1563 l 1823 1910 l 1476 1910 z m 868 2083 l 1910 2083 l 1910 2257 l 868 2257 z "},"Ǡ":{"ha":1701,"x_min":0,"x_max":0,"o":"m 0 0 l 347 0 l 1215 868 l 1215 521 l 1042 521 l 694 174 l 1215 174 l 1215 0 l 1563 0 l 1563 1389 l 1215 1389 l 0 174 l 0 122 z m 1302 1563 l 1476 1563 l 1563 1649 l 1563 1823 l 1476 1910 l 1302 1910 l 1215 1823 l 1215 1649 z m 868 2083 l 1910 2083 l 1910 2257 l 868 2257 z "},"ǡ":{"ha":1701,"x_min":0,"x_max":0,"o":"m 0 0 l 347 0 l 1215 868 l 1215 521 l 1042 521 l 694 174 l 1215 174 l 1215 0 l 1563 0 l 1563 1389 l 1215 1389 l 0 174 l 0 122 z m 1302 1563 l 1476 1563 l 1563 1649 l 1563 1823 l 1476 1910 l 1302 1910 l 1215 1823 l 1215 1649 z m 868 2083 l 1910 2083 l 1910 2257 l 868 2257 z "},"Ǣ":{"ha":2916,"x_min":0,"x_max":0,"o":"m 0 0 l 347 0 l 1215 868 l 1215 521 l 1042 521 l 694 174 l 1215 174 l 1215 0 l 2778 0 l 2778 174 l 2604 347 l 1563 347 l 1563 521 l 2604 521 l 2604 868 l 1563 868 l 1563 1042 l 2604 1042 l 2778 1215 l 2778 1389 l 1215 1389 l 0 174 l 0 122 z m 1389 1563 l 2604 1563 l 2604 1736 l 1389 1736 z "},"ǣ":{"ha":2916,"x_min":0,"x_max":0,"o":"m 0 0 l 347 0 l 1215 868 l 1215 521 l 1042 521 l 694 174 l 1215 174 l 1215 0 l 2778 0 l 2778 174 l 2604 347 l 1563 347 l 1563 521 l 2604 521 l 2604 868 l 1563 868 l 1563 1042 l 2604 1042 l 2778 1215 l 2778 1389 l 1215 1389 l 0 174 l 0 122 z m 1389 1563 l 2604 1563 l 2604 1736 l 1389 1736 z "},"Ǥ":{"ha":2048,"x_min":0,"x_max":0,"o":"m 1042 521 l 1563 521 l 1910 868 l 1215 868 l 1042 694 z m 521 0 l 1736 0 l 1910 174 l 1910 694 l 1563 347 l 694 347 l 694 694 l 1042 1042 l 1736 1042 l 1910 1215 l 1910 1389 l 868 1389 l 347 868 l 347 694 l 0 694 l 0 590 l 0 347 l 347 347 l 347 174 z "},"ǥ":{"ha":2048,"x_min":0,"x_max":0,"o":"m 1042 521 l 1563 521 l 1910 868 l 1215 868 l 1042 694 z m 521 0 l 1736 0 l 1910 174 l 1910 694 l 1563 347 l 694 347 l 694 694 l 1042 1042 l 1736 1042 l 1910 1215 l 1910 1389 l 868 1389 l 347 868 l 347 694 l 0 694 l 0 590 l 0 347 l 347 347 l 347 174 z "},"Ǧ":{"ha":1701,"x_min":0,"x_max":0,"o":"m 694 521 l 1215 521 l 1563 868 l 868 868 l 694 694 z m 174 0 l 1389 0 l 1563 174 l 1563 694 l 1215 347 l 347 347 l 347 694 l 694 1042 l 1389 1042 l 1563 1215 l 1563 1389 l 521 1389 l 0 868 l 0 659 l 0 174 z m 868 1563 l 1215 1563 l 1389 1736 l 1389 1910 l 1215 1910 l 1042 1736 l 868 1910 l 694 1910 l 694 1736 z "},"ǧ":{"ha":1701,"x_min":0,"x_max":0,"o":"m 694 521 l 1215 521 l 1563 868 l 868 868 l 694 694 z m 174 0 l 1389 0 l 1563 174 l 1563 694 l 1215 347 l 347 347 l 347 694 l 694 1042 l 1389 1042 l 1563 1215 l 1563 1389 l 521 1389 l 0 868 l 0 659 l 0 174 z m 868 1563 l 1215 1563 l 1389 1736 l 1389 1910 l 1215 1910 l 1042 1736 l 868 1910 l 694 1910 l 694 1736 z "},"Ǩ":{"ha":1701,"x_min":0,"x_max":0,"o":"m 0 0 l 347 0 l 347 1389 l 0 1389 l 0 972 z m 1215 0 l 1563 0 l 1563 174 l 1042 694 l 1563 1215 l 1563 1389 l 1215 1389 l 521 694 z m 521 1563 l 868 1563 l 1042 1736 l 1042 1910 l 868 1910 l 694 1736 l 521 1910 l 347 1910 l 347 1736 z "},"ǩ":{"ha":1701,"x_min":0,"x_max":0,"o":"m 0 0 l 347 0 l 347 1389 l 0 1389 l 0 972 z m 1215 0 l 1563 0 l 1563 174 l 1042 694 l 1563 1215 l 1563 1389 l 1215 1389 l 521 694 z m 521 1563 l 868 1563 l 1042 1736 l 1042 1910 l 868 1910 l 694 1736 l 521 1910 l 347 1910 l 347 1736 z "},"Ǫ":{"ha":1701,"x_min":0,"x_max":0,"o":"m 694 -347 l 1042 -347 l 868 -174 l 1042 0 l 1389 0 l 1563 174 l 1563 1215 l 1215 868 l 1215 347 l 521 347 l 174 0 l 694 0 l 521 -174 z m 0 0 l 347 347 l 347 1042 l 1215 1042 l 1563 1389 l 174 1389 l 0 1215 l 0 850 z "},"ǫ":{"ha":1701,"x_min":0,"x_max":0,"o":"m 694 -347 l 1042 -347 l 868 -174 l 1042 0 l 1389 0 l 1563 174 l 1563 1215 l 1215 868 l 1215 347 l 521 347 l 174 0 l 694 0 l 521 -174 z m 0 0 l 347 347 l 347 1042 l 1215 1042 l 1563 1389 l 174 1389 l 0 1215 l 0 850 z "},"Ǭ":{"ha":1701,"x_min":0,"x_max":0,"o":"m 694 -347 l 1042 -347 l 868 -174 l 1042 0 l 1389 0 l 1563 174 l 1563 1215 l 1215 868 l 1215 347 l 521 347 l 174 0 l 694 0 l 521 -174 z m 0 0 l 347 347 l 347 1042 l 1215 1042 l 1563 1389 l 174 1389 l 0 1215 l 0 850 z m 347 1563 l 1215 1563 l 1215 1736 l 347 1736 z "},"ǭ":{"ha":1701,"x_min":0,"x_max":0,"o":"m 694 -347 l 1042 -347 l 868 -174 l 1042 0 l 1389 0 l 1563 174 l 1563 1215 l 1215 868 l 1215 347 l 521 347 l 174 0 l 694 0 l 521 -174 z m 0 0 l 347 347 l 347 1042 l 1215 1042 l 1563 1389 l 174 1389 l 0 1215 l 0 850 z m 347 1563 l 1215 1563 l 1215 1736 l 347 1736 z "},"ǰ":{"ha":1701,"x_min":0,"x_max":0,"o":"m 0 0 l 521 0 l 868 347 l 174 347 l 0 174 l 0 122 z m 694 0 l 1215 0 l 1563 347 l 1563 1389 l 1215 1389 l 1215 521 z m 1215 1563 l 1563 1563 l 1736 1736 l 1736 1910 l 1563 1910 l 1389 1736 l 1215 1910 l 1042 1910 l 1042 1736 z "},"Ǳ":{"ha":3263,"x_min":0,"x_max":0,"o":"m 2083 0 l 3125 0 l 3125 347 l 2431 347 z m 0 0 l 1042 0 l 1563 521 l 1563 868 l 1042 1389 l 0 1389 l 0 1024 l 0 174 l 347 521 l 347 1042 l 868 1042 l 1215 694 l 868 347 l 347 347 z m 1563 0 l 1910 0 l 3125 1215 l 3125 1389 l 1563 1389 l 1563 1042 l 2431 1042 l 1563 174 z "},"ǲ":{"ha":3263,"x_min":0,"x_max":0,"o":"m 2083 0 l 3125 0 l 3125 347 l 2431 347 z m 0 0 l 1042 0 l 1563 521 l 1563 868 l 1042 1389 l 0 1389 l 0 1024 l 0 174 l 347 521 l 347 1042 l 868 1042 l 1215 694 l 868 347 l 347 347 z m 1563 0 l 1910 0 l 3125 1215 l 3125 1389 l 1563 1389 l 1563 1042 l 2431 1042 l 1563 174 z "},"ǳ":{"ha":3263,"x_min":0,"x_max":0,"o":"m 2083 0 l 3125 0 l 3125 347 l 2431 347 z m 0 0 l 1042 0 l 1563 521 l 1563 868 l 1042 1389 l 0 1389 l 0 1024 l 0 174 l 347 521 l 347 1042 l 868 1042 l 1215 694 l 868 347 l 347 347 z m 1563 0 l 1910 0 l 3125 1215 l 3125 1389 l 1563 1389 l 1563 1042 l 2431 1042 l 1563 174 z "},"Ǵ":{"ha":1701,"x_min":0,"x_max":0,"o":"m 694 521 l 1215 521 l 1563 868 l 868 868 l 694 694 z m 174 0 l 1389 0 l 1563 174 l 1563 694 l 1215 347 l 347 347 l 347 694 l 694 1042 l 1389 1042 l 1563 1215 l 1563 1389 l 521 1389 l 0 868 l 0 659 l 0 174 z m 868 1563 l 1042 1563 l 1215 1736 l 1215 1910 l 1042 1910 l 868 1736 z "},"ǵ":{"ha":1701,"x_min":0,"x_max":0,"o":"m 694 521 l 1215 521 l 1563 868 l 868 868 l 694 694 z m 174 0 l 1389 0 l 1563 174 l 1563 694 l 1215 347 l 347 347 l 347 694 l 694 1042 l 1389 1042 l 1563 1215 l 1563 1389 l 521 1389 l 0 868 l 0 659 l 0 174 z m 868 1563 l 1042 1563 l 1215 1736 l 1215 1910 l 1042 1910 l 868 1736 z "},"Ǹ":{"ha":1701,"x_min":0,"x_max":0,"o":"m 0 0 l 347 0 l 347 694 l 0 1042 l 0 730 z m 1215 0 l 1563 0 l 1563 1389 l 1215 1389 l 1215 521 l 347 1389 l 0 1389 l 0 1337 l 0 1215 z m 694 1563 l 868 1563 l 868 1736 l 694 1910 l 521 1910 l 521 1736 z "},"ǹ":{"ha":1701,"x_min":0,"x_max":0,"o":"m 0 0 l 347 0 l 347 694 l 0 1042 l 0 730 z m 1215 0 l 1563 0 l 1563 1389 l 1215 1389 l 1215 521 l 347 1389 l 0 1389 l 0 1337 l 0 1215 z m 694 1563 l 868 1563 l 868 1736 l 694 1910 l 521 1910 l 521 1736 z "},"Ǻ":{"ha":1701,"x_min":0,"x_max":0,"o":"m 0 0 l 347 0 l 1215 868 l 1215 521 l 1042 521 l 694 174 l 1215 174 l 1215 0 l 1563 0 l 1563 1389 l 1215 1389 l 0 174 l 0 122 z m 1302 1563 l 1476 1563 l 1563 1649 l 1563 1823 l 1476 1910 l 1302 1910 l 1215 1823 l 1215 1649 z m 1215 2083 l 1389 2083 l 1563 2257 l 1563 2431 l 1389 2431 l 1215 2257 z "},"ǻ":{"ha":1701,"x_min":0,"x_max":0,"o":"m 0 0 l 347 0 l 1215 868 l 1215 521 l 1042 521 l 694 174 l 1215 174 l 1215 0 l 1563 0 l 1563 1389 l 1215 1389 l 0 174 l 0 122 z m 1302 1563 l 1476 1563 l 1563 1649 l 1563 1823 l 1476 1910 l 1302 1910 l 1215 1823 l 1215 1649 z m 1215 2083 l 1389 2083 l 1563 2257 l 1563 2431 l 1389 2431 l 1215 2257 z "},"Ǽ":{"ha":2916,"x_min":0,"x_max":0,"o":"m 0 0 l 347 0 l 1215 868 l 1215 521 l 1042 521 l 694 174 l 1215 174 l 1215 0 l 2778 0 l 2778 174 l 2604 347 l 1563 347 l 1563 521 l 2604 521 l 2604 868 l 1563 868 l 1563 1042 l 2604 1042 l 2778 1215 l 2778 1389 l 1215 1389 l 0 174 l 0 122 z m 1563 1563 l 1736 1563 l 1910 1736 l 1910 1910 l 1736 1910 l 1563 1736 z "},"ǽ":{"ha":2916,"x_min":0,"x_max":0,"o":"m 0 0 l 347 0 l 1215 868 l 1215 521 l 1042 521 l 694 174 l 1215 174 l 1215 0 l 2778 0 l 2778 174 l 2604 347 l 1563 347 l 1563 521 l 2604 521 l 2604 868 l 1563 868 l 1563 1042 l 2604 1042 l 2778 1215 l 2778 1389 l 1215 1389 l 0 174 l 0 122 z m 1563 1563 l 1736 1563 l 1910 1736 l 1910 1910 l 1736 1910 l 1563 1736 z "},"Ǿ":{"ha":1874,"x_min":0,"x_max":0,"o":"m -174 -347 l 174 0 l 117 0 l 0 0 l -174 -174 z m 347 347 l 521 347 l 1215 1042 l 1042 1042 z m 0 0 l 347 347 l 347 1042 l 1042 1042 l 1389 1389 l 174 1389 l 0 1215 l 0 850 z m 174 0 l 1389 0 l 1563 174 l 1563 1389 l 1215 1042 l 1215 347 l 521 347 z m 1389 1389 l 1563 1389 l 1736 1563 l 1736 1736 z m 694 1563 l 868 1563 l 1042 1736 l 1042 1910 l 868 1910 l 694 1736 z "},"ǿ":{"ha":1874,"x_min":0,"x_max":0,"o":"m -174 -347 l 174 0 l 117 0 l 0 0 l -174 -174 z m 347 347 l 521 347 l 1215 1042 l 1042 1042 z m 0 0 l 347 347 l 347 1042 l 1042 1042 l 1389 1389 l 174 1389 l 0 1215 l 0 850 z m 174 0 l 1389 0 l 1563 174 l 1563 1389 l 1215 1042 l 1215 347 l 521 347 z m 1389 1389 l 1563 1389 l 1736 1563 l 1736 1736 z m 694 1563 l 868 1563 l 1042 1736 l 1042 1910 l 868 1910 l 694 1736 z "},"Ȁ":{"ha":1701,"x_min":0,"x_max":0,"o":"m 0 0 l 347 0 l 1215 868 l 1215 521 l 1042 521 l 694 174 l 1215 174 l 1215 0 l 1563 0 l 1563 1389 l 1215 1389 l 0 174 l 0 122 z m 1042 1563 l 1215 1563 l 1215 1736 l 1042 1910 l 868 1910 l 868 1736 z m 1563 1563 l 1736 1563 l 1736 1736 l 1563 1910 l 1389 1910 l 1389 1736 z "},"ȁ":{"ha":1701,"x_min":0,"x_max":0,"o":"m 0 0 l 347 0 l 1215 868 l 1215 521 l 1042 521 l 694 174 l 1215 174 l 1215 0 l 1563 0 l 1563 1389 l 1215 1389 l 0 174 l 0 122 z m 1042 1563 l 1215 1563 l 1215 1736 l 1042 1910 l 868 1910 l 868 1736 z m 1563 1563 l 1736 1563 l 1736 1736 l 1563 1910 l 1389 1910 l 1389 1736 z "},"Ȃ":{"ha":1874,"x_min":0,"x_max":0,"o":"m 0 0 l 347 0 l 1215 868 l 1215 521 l 1042 521 l 694 174 l 1215 174 l 1215 0 l 1563 0 l 1563 1389 l 1215 1389 l 0 174 l 0 122 z m 868 1563 l 1042 1563 l 1215 1736 l 1563 1736 l 1736 1563 l 1910 1563 l 1910 1736 l 1736 1910 l 1042 1910 l 868 1736 z "},"ȃ":{"ha":1874,"x_min":0,"x_max":0,"o":"m 0 0 l 347 0 l 1215 868 l 1215 521 l 1042 521 l 694 174 l 1215 174 l 1215 0 l 1563 0 l 1563 1389 l 1215 1389 l 0 174 l 0 122 z m 868 1563 l 1042 1563 l 1215 1736 l 1563 1736 l 1736 1563 l 1910 1563 l 1910 1736 l 1736 1910 l 1042 1910 l 868 1736 z "},"Ȅ":{"ha":1701,"x_min":0,"x_max":0,"o":"m 0 0 l 1563 0 l 1563 174 l 1389 347 l 694 347 l 868 521 l 1389 521 l 1389 868 l 868 868 l 347 1389 l 0 1389 l 0 1215 l 521 694 l 0 174 l 0 122 z m 868 1042 l 1389 1042 l 1563 1215 l 1563 1389 l 521 1389 z m 521 1563 l 694 1563 l 694 1736 l 521 1910 l 347 1910 l 347 1736 z m 1042 1563 l 1215 1563 l 1215 1736 l 1042 1910 l 868 1910 l 868 1736 z "},"ȅ":{"ha":1701,"x_min":0,"x_max":0,"o":"m 0 0 l 1563 0 l 1563 174 l 1389 347 l 694 347 l 868 521 l 1389 521 l 1389 868 l 868 868 l 347 1389 l 0 1389 l 0 1215 l 521 694 l 0 174 l 0 122 z m 868 1042 l 1389 1042 l 1563 1215 l 1563 1389 l 521 1389 z m 521 1563 l 694 1563 l 694 1736 l 521 1910 l 347 1910 l 347 1736 z m 1042 1563 l 1215 1563 l 1215 1736 l 1042 1910 l 868 1910 l 868 1736 z "},"Ȇ":{"ha":1701,"x_min":0,"x_max":0,"o":"m 0 0 l 1563 0 l 1563 174 l 1389 347 l 694 347 l 868 521 l 1389 521 l 1389 868 l 868 868 l 347 1389 l 0 1389 l 0 1215 l 521 694 l 0 174 l 0 122 z m 868 1042 l 1389 1042 l 1563 1215 l 1563 1389 l 521 1389 z m 347 1563 l 521 1563 l 694 1736 l 1042 1736 l 1215 1563 l 1389 1563 l 1389 1736 l 1215 1910 l 521 1910 l 347 1736 z "},"ȇ":{"ha":1701,"x_min":0,"x_max":0,"o":"m 0 0 l 1563 0 l 1563 174 l 1389 347 l 694 347 l 868 521 l 1389 521 l 1389 868 l 868 868 l 347 1389 l 0 1389 l 0 1215 l 521 694 l 0 174 l 0 122 z m 868 1042 l 1389 1042 l 1563 1215 l 1563 1389 l 521 1389 z m 347 1563 l 521 1563 l 694 1736 l 1042 1736 l 1215 1563 l 1389 1563 l 1389 1736 l 1215 1910 l 521 1910 l 347 1736 z "},"Ȉ":{"ha":1006,"x_min":0,"x_max":0,"o":"m 347 0 l 694 0 l 694 1389 l 347 1389 z m 174 1563 l 347 1563 l 347 1736 l 174 1910 l 0 1910 l 0 1858 l 0 1736 z m 694 1563 l 868 1563 l 868 1736 l 694 1910 l 521 1910 l 521 1736 z "},"ȉ":{"ha":1006,"x_min":0,"x_max":0,"o":"m 347 0 l 694 0 l 694 1389 l 347 1389 z m 174 1563 l 347 1563 l 347 1736 l 174 1910 l 0 1910 l 0 1858 l 0 1736 z m 694 1563 l 868 1563 l 868 1736 l 694 1910 l 521 1910 l 521 1736 z "},"Ȋ":{"ha":1180,"x_min":0,"x_max":0,"o":"m 347 0 l 694 0 l 694 1389 l 347 1389 z m 0 1563 l 174 1563 l 347 1736 l 694 1736 l 868 1563 l 1042 1563 l 1042 1736 l 868 1910 l 174 1910 l 0 1736 l 0 1685 z "},"ȋ":{"ha":1180,"x_min":0,"x_max":0,"o":"m 347 0 l 694 0 l 694 1389 l 347 1389 z m 0 1563 l 174 1563 l 347 1736 l 694 1736 l 868 1563 l 1042 1563 l 1042 1736 l 868 1910 l 174 1910 l 0 1736 l 0 1685 z "},"Ȍ":{"ha":1701,"x_min":0,"x_max":0,"o":"m 174 0 l 1389 0 l 1563 174 l 1563 1215 l 1215 868 l 1215 347 l 521 347 z m 0 0 l 347 347 l 347 1042 l 1215 1042 l 1563 1389 l 174 1389 l 0 1215 l 0 850 z m 521 1563 l 694 1563 l 694 1736 l 521 1910 l 347 1910 l 347 1736 z m 1042 1563 l 1215 1563 l 1215 1736 l 1042 1910 l 868 1910 l 868 1736 z "},"ȍ":{"ha":1701,"x_min":0,"x_max":0,"o":"m 174 0 l 1389 0 l 1563 174 l 1563 1215 l 1215 868 l 1215 347 l 521 347 z m 0 0 l 347 347 l 347 1042 l 1215 1042 l 1563 1389 l 174 1389 l 0 1215 l 0 850 z m 521 1563 l 694 1563 l 694 1736 l 521 1910 l 347 1910 l 347 1736 z m 1042 1563 l 1215 1563 l 1215 1736 l 1042 1910 l 868 1910 l 868 1736 z "},"Ȏ":{"ha":1701,"x_min":0,"x_max":0,"o":"m 174 0 l 1389 0 l 1563 174 l 1563 1215 l 1215 868 l 1215 347 l 521 347 z m 0 0 l 347 347 l 347 1042 l 1215 1042 l 1563 1389 l 174 1389 l 0 1215 l 0 850 z m 297 1563 l 471 1563 l 644 1736 l 991 1736 l 1165 1563 l 1339 1563 l 1339 1736 l 1165 1910 l 471 1910 l 297 1736 z "},"ȏ":{"ha":1701,"x_min":0,"x_max":0,"o":"m 174 0 l 1389 0 l 1563 174 l 1563 1215 l 1215 868 l 1215 347 l 521 347 z m 0 0 l 347 347 l 347 1042 l 1215 1042 l 1563 1389 l 174 1389 l 0 1215 l 0 850 z m 297 1563 l 471 1563 l 644 1736 l 991 1736 l 1165 1563 l 1339 1563 l 1339 1736 l 1165 1910 l 471 1910 l 297 1736 z "},"Ȑ":{"ha":1701,"x_min":0,"x_max":0,"o":"m 0 0 l 347 0 l 347 1042 l 0 1389 l 0 972 z m 1215 0 l 1563 0 l 1563 174 l 1128 608 b 1214 694 1171 651 1199 680 l 1215 694 l 1563 1042 l 1563 1389 l 174 1389 l 521 1042 l 1042 1042 l 868 868 l 521 868 l 521 521 l 694 521 z m 521 1563 l 694 1563 l 694 1736 l 521 1910 l 347 1910 l 347 1736 z m 1042 1563 l 1215 1563 l 1215 1736 l 1042 1910 l 868 1910 l 868 1736 z "},"ȑ":{"ha":1701,"x_min":0,"x_max":0,"o":"m 0 0 l 347 0 l 347 1042 l 0 1389 l 0 972 z m 1215 0 l 1563 0 l 1563 174 l 1128 608 b 1214 694 1171 651 1199 680 l 1215 694 l 1563 1042 l 1563 1389 l 174 1389 l 521 1042 l 1042 1042 l 868 868 l 521 868 l 521 521 l 694 521 z m 521 1563 l 694 1563 l 694 1736 l 521 1910 l 347 1910 l 347 1736 z m 1042 1563 l 1215 1563 l 1215 1736 l 1042 1910 l 868 1910 l 868 1736 z "},"Ȓ":{"ha":1701,"x_min":0,"x_max":0,"o":"m 0 0 l 347 0 l 347 1042 l 0 1389 l 0 972 z m 1215 0 l 1563 0 l 1563 174 l 1128 608 b 1214 694 1171 651 1199 680 l 1215 694 l 1563 1042 l 1563 1389 l 174 1389 l 521 1042 l 1042 1042 l 868 868 l 521 868 l 521 521 l 694 521 z m 288 1563 l 461 1563 l 635 1736 l 982 1736 l 1156 1563 l 1329 1563 l 1329 1736 l 1156 1910 l 461 1910 l 288 1736 z "},"ȓ":{"ha":1701,"x_min":0,"x_max":0,"o":"m 0 0 l 347 0 l 347 1042 l 0 1389 l 0 972 z m 1215 0 l 1563 0 l 1563 174 l 1128 608 b 1214 694 1171 651 1199 680 l 1215 694 l 1563 1042 l 1563 1389 l 174 1389 l 521 1042 l 1042 1042 l 868 868 l 521 868 l 521 521 l 694 521 z m 288 1563 l 461 1563 l 635 1736 l 982 1736 l 1156 1563 l 1329 1563 l 1329 1736 l 1156 1910 l 461 1910 l 288 1736 z "},"Ȕ":{"ha":1701,"x_min":0,"x_max":0,"o":"m 174 0 l 694 0 l 1042 347 l 347 347 l 347 1389 l 0 1389 l 0 1024 l 0 174 z m 868 0 l 1389 0 l 1563 174 l 1563 1389 l 1215 1389 l 1215 347 z m 521 1563 l 694 1563 l 694 1736 l 521 1910 l 347 1910 l 347 1736 z m 1042 1563 l 1215 1563 l 1215 1736 l 1042 1910 l 868 1910 l 868 1736 z "},"ȕ":{"ha":1701,"x_min":0,"x_max":0,"o":"m 174 0 l 694 0 l 1042 347 l 347 347 l 347 1389 l 0 1389 l 0 1024 l 0 174 z m 868 0 l 1389 0 l 1563 174 l 1563 1389 l 1215 1389 l 1215 347 z m 521 1563 l 694 1563 l 694 1736 l 521 1910 l 347 1910 l 347 1736 z m 1042 1563 l 1215 1563 l 1215 1736 l 1042 1910 l 868 1910 l 868 1736 z "},"Ȗ":{"ha":1701,"x_min":0,"x_max":0,"o":"m 174 0 l 694 0 l 1042 347 l 347 347 l 347 1389 l 0 1389 l 0 1024 l 0 174 z m 868 0 l 1389 0 l 1563 174 l 1563 1389 l 1215 1389 l 1215 347 z m 263 1563 l 437 1563 l 610 1736 l 958 1736 l 1131 1563 l 1305 1563 l 1305 1736 l 1131 1910 l 437 1910 l 263 1736 z "},"ȗ":{"ha":1701,"x_min":0,"x_max":0,"o":"m 174 0 l 694 0 l 1042 347 l 347 347 l 347 1389 l 0 1389 l 0 1024 l 0 174 z m 868 0 l 1389 0 l 1563 174 l 1563 1389 l 1215 1389 l 1215 347 z m 263 1563 l 437 1563 l 610 1736 l 958 1736 l 1131 1563 l 1305 1563 l 1305 1736 l 1131 1910 l 437 1910 l 263 1736 z "},"Ș":{"ha":1701,"x_min":0,"x_max":0,"o":"m 694 -694 l 868 -694 l 1042 -521 l 1042 -174 l 694 -174 l 694 -347 l 868 -347 l 694 -521 z m 0 0 l 1563 0 l 1563 174 l 347 1389 l 0 1389 l 0 1215 l 868 347 l 0 347 l 0 243 z m 868 1042 l 1563 1042 l 1563 1389 l 521 1389 z "},"ș":{"ha":1701,"x_min":0,"x_max":0,"o":"m 694 -694 l 868 -694 l 1042 -521 l 1042 -174 l 694 -174 l 694 -347 l 868 -347 l 694 -521 z m 0 0 l 1563 0 l 1563 174 l 347 1389 l 0 1389 l 0 1215 l 868 347 l 0 347 l 0 243 z m 868 1042 l 1563 1042 l 1563 1389 l 521 1389 z "},"Ț":{"ha":1527,"x_min":0,"x_max":0,"o":"m 521 -694 l 694 -694 l 868 -521 l 868 -174 l 521 -174 l 521 -347 l 694 -347 l 521 -521 z m 521 0 l 868 0 l 868 1042 l 1215 1042 l 1389 1215 l 1389 1389 l 0 1389 l 0 1284 l 0 1042 l 521 1042 z "},"ț":{"ha":1527,"x_min":0,"x_max":0,"o":"m 521 -694 l 694 -694 l 868 -521 l 868 -174 l 521 -174 l 521 -347 l 694 -347 l 521 -521 z m 521 0 l 868 0 l 868 1042 l 1215 1042 l 1389 1215 l 1389 1389 l 0 1389 l 0 1284 l 0 1042 l 521 1042 z "},"Ȟ":{"ha":1701,"x_min":0,"x_max":0,"o":"m 0 0 l 347 0 l 347 521 l 694 868 l 347 868 l 347 1389 l 0 1389 l 0 972 z m 1215 0 l 1563 0 l 1563 1389 l 1215 1389 l 1215 868 l 868 868 l 521 521 l 1215 521 z m 609 1563 l 956 1563 l 1130 1736 l 1130 1910 l 956 1910 l 783 1736 l 609 1910 l 435 1910 l 435 1736 z "},"ȟ":{"ha":1701,"x_min":0,"x_max":0,"o":"m 0 0 l 347 0 l 347 521 l 694 868 l 347 868 l 347 1389 l 0 1389 l 0 972 z m 1215 0 l 1563 0 l 1563 1389 l 1215 1389 l 1215 868 l 868 868 l 521 521 l 1215 521 z m 609 1563 l 956 1563 l 1130 1736 l 1130 1910 l 956 1910 l 783 1736 l 609 1910 l 435 1910 l 435 1736 z "},"Ȧ":{"ha":1701,"x_min":0,"x_max":0,"o":"m 0 0 l 347 0 l 1215 868 l 1215 521 l 1042 521 l 694 174 l 1215 174 l 1215 0 l 1563 0 l 1563 1389 l 1215 1389 l 0 174 l 0 122 z m 1215 1563 l 1563 1563 l 1563 1910 l 1215 1910 z "},"ȧ":{"ha":1701,"x_min":0,"x_max":0,"o":"m 0 0 l 347 0 l 1215 868 l 1215 521 l 1042 521 l 694 174 l 1215 174 l 1215 0 l 1563 0 l 1563 1389 l 1215 1389 l 0 174 l 0 122 z m 1215 1563 l 1563 1563 l 1563 1910 l 1215 1910 z "},"Ȩ":{"ha":1701,"x_min":0,"x_max":0,"o":"m 694 -521 l 868 -521 l 1042 -347 l 1042 0 l 1563 0 l 1563 174 l 1389 347 l 694 347 l 868 521 l 1389 521 l 1389 868 l 868 868 l 347 1389 l 0 1389 l 0 1215 l 521 694 l 0 174 l 0 122 l 0 0 l 694 0 l 694 -174 l 868 -174 l 694 -347 z m 868 1042 l 1389 1042 l 1563 1215 l 1563 1389 l 521 1389 z "},"ȩ":{"ha":1701,"x_min":0,"x_max":0,"o":"m 694 -521 l 868 -521 l 1042 -347 l 1042 0 l 1563 0 l 1563 174 l 1389 347 l 694 347 l 868 521 l 1389 521 l 1389 868 l 868 868 l 347 1389 l 0 1389 l 0 1215 l 521 694 l 0 174 l 0 122 l 0 0 l 694 0 l 694 -174 l 868 -174 l 694 -347 z m 868 1042 l 1389 1042 l 1563 1215 l 1563 1389 l 521 1389 z "},"Ȫ":{"ha":1701,"x_min":0,"x_max":0,"o":"m 174 0 l 1389 0 l 1563 174 l 1563 1215 l 1215 868 l 1215 347 l 521 347 z m 0 0 l 347 347 l 347 1042 l 1215 1042 l 1563 1389 l 174 1389 l 0 1215 l 0 850 z m 347 1563 l 694 1563 l 694 1910 l 347 1910 z m 868 1563 l 1215 1563 l 1215 1910 l 868 1910 z m 347 2083 l 1215 2083 l 1215 2257 l 347 2257 z "},"ȫ":{"ha":1701,"x_min":0,"x_max":0,"o":"m 174 0 l 1389 0 l 1563 174 l 1563 1215 l 1215 868 l 1215 347 l 521 347 z m 0 0 l 347 347 l 347 1042 l 1215 1042 l 1563 1389 l 174 1389 l 0 1215 l 0 850 z m 347 1563 l 694 1563 l 694 1910 l 347 1910 z m 868 1563 l 1215 1563 l 1215 1910 l 868 1910 z m 347 2083 l 1215 2083 l 1215 2257 l 347 2257 z "},"Ȭ":{"ha":1701,"x_min":0,"x_max":0,"o":"m 174 0 l 1389 0 l 1563 174 l 1563 1215 l 1215 868 l 1215 347 l 521 347 z m 0 0 l 347 347 l 347 1042 l 1215 1042 l 1563 1389 l 174 1389 l 0 1215 l 0 850 z m 263 1563 l 437 1563 l 610 1736 l 784 1563 l 1131 1563 l 1305 1736 l 1305 1910 l 1131 1910 l 958 1736 l 784 1910 l 437 1910 l 263 1736 z m 347 2083 l 1215 2083 l 1215 2257 l 347 2257 z "},"ȭ":{"ha":1701,"x_min":0,"x_max":0,"o":"m 174 0 l 1389 0 l 1563 174 l 1563 1215 l 1215 868 l 1215 347 l 521 347 z m 0 0 l 347 347 l 347 1042 l 1215 1042 l 1563 1389 l 174 1389 l 0 1215 l 0 850 z m 263 1563 l 437 1563 l 610 1736 l 784 1563 l 1131 1563 l 1305 1736 l 1305 1910 l 1131 1910 l 958 1736 l 784 1910 l 437 1910 l 263 1736 z m 347 2083 l 1215 2083 l 1215 2257 l 347 2257 z "},"Ȯ":{"ha":1701,"x_min":0,"x_max":0,"o":"m 174 0 l 1389 0 l 1563 174 l 1563 1215 l 1215 868 l 1215 347 l 521 347 z m 0 0 l 347 347 l 347 1042 l 1215 1042 l 1563 1389 l 174 1389 l 0 1215 l 0 850 z m 608 1563 l 955 1563 l 955 1910 l 608 1910 z "},"ȯ":{"ha":1701,"x_min":0,"x_max":0,"o":"m 174 0 l 1389 0 l 1563 174 l 1563 1215 l 1215 868 l 1215 347 l 521 347 z m 0 0 l 347 347 l 347 1042 l 1215 1042 l 1563 1389 l 174 1389 l 0 1215 l 0 850 z m 608 1563 l 955 1563 l 955 1910 l 608 1910 z "},"Ȱ":{"ha":1701,"x_min":0,"x_max":0,"o":"m 174 0 l 1389 0 l 1563 174 l 1563 1215 l 1215 868 l 1215 347 l 521 347 z m 0 0 l 347 347 l 347 1042 l 1215 1042 l 1563 1389 l 174 1389 l 0 1215 l 0 850 z m 608 1563 l 955 1563 l 955 1910 l 608 1910 z m 347 2083 l 1215 2083 l 1215 2257 l 347 2257 z "},"ȱ":{"ha":1701,"x_min":0,"x_max":0,"o":"m 174 0 l 1389 0 l 1563 174 l 1563 1215 l 1215 868 l 1215 347 l 521 347 z m 0 0 l 347 347 l 347 1042 l 1215 1042 l 1563 1389 l 174 1389 l 0 1215 l 0 850 z m 608 1563 l 955 1563 l 955 1910 l 608 1910 z m 347 2083 l 1215 2083 l 1215 2257 l 347 2257 z "},"Ȳ":{"ha":1701,"x_min":0,"x_max":0,"o":"m 434 781 l 694 1042 l 347 1389 l 0 1389 l 0 1337 l 0 1215 z m 521 0 l 868 0 l 868 521 l 1563 1215 l 1563 1389 l 1215 1389 l 521 694 z m 347 1563 l 1215 1563 l 1215 1736 l 347 1736 z "},"ȳ":{"ha":1701,"x_min":0,"x_max":0,"o":"m 434 781 l 694 1042 l 347 1389 l 0 1389 l 0 1337 l 0 1215 z m 521 0 l 868 0 l 868 521 l 1563 1215 l 1563 1389 l 1215 1389 l 521 694 z m 347 1563 l 1215 1563 l 1215 1736 l 347 1736 z "},"Ʌ":{"ha":1701,"x_min":0,"x_max":0,"o":"m 0 0 l 347 0 l 1215 868 l 1215 0 l 1563 0 l 1563 1389 l 1215 1389 l 0 174 l 0 122 z "},"Ɍ":{"ha":2048,"x_min":0,"x_max":0,"o":"m 347 0 l 694 0 l 694 1042 l 347 1389 l 347 868 l 0 868 l 0 764 l 0 521 l 347 521 z m 1563 0 l 1910 0 l 1910 174 l 1476 608 b 1561 694 1518 651 1547 680 l 1563 694 l 1910 1042 l 1910 1389 l 521 1389 l 868 1042 l 1389 1042 l 1215 868 l 868 868 l 868 521 l 1042 521 z "},"΄":{"ha":486,"x_min":0,"x_max":0,"o":"m 0 1042 l 174 1042 l 347 1215 l 347 1563 l 174 1563 l 0 1389 l 0 1284 z "},"΅":{"ha":1527,"x_min":0,"x_max":0,"o":"m 0 1042 l 174 1042 l 347 1215 l 347 1389 l 174 1389 l 0 1215 l 0 1164 z m 1042 1042 l 1215 1042 l 1389 1215 l 1389 1389 l 1215 1389 l 1042 1215 z m 521 1042 l 694 1042 l 868 1215 l 868 1563 l 694 1563 l 521 1389 z "},"—":{"ha":2048,"x_min":0,"x_max":0,"o":"m 0 521 l 1910 521 l 1910 868 l 0 868 l 0 764 z "},"‘":{"ha":486,"x_min":0,"x_max":0,"o":"m 0 1042 l 347 1042 l 347 1215 l 174 1215 l 347 1389 l 347 1563 l 174 1563 l 0 1389 l 0 1284 z "},"’":{"ha":486,"x_min":0,"x_max":0,"o":"m 0 1042 l 174 1042 l 347 1215 l 347 1563 l 0 1563 l 0 1389 l 174 1389 l 0 1215 l 0 1164 z "},"‚":{"ha":486,"x_min":0,"x_max":0,"o":"m 0 0 l 174 0 l 347 174 l 347 521 l 0 521 l 0 347 l 174 347 l 0 174 l 0 122 z "},"‛":{"ha":486,"x_min":0,"x_max":0,"o":"m 174 1042 l 347 1042 l 347 1215 l 174 1389 l 347 1389 l 347 1563 l 0 1563 l 0 1458 l 0 1215 z "},"“":{"ha":1006,"x_min":0,"x_max":0,"o":"m 0 1042 l 347 1042 l 347 1215 l 174 1215 l 347 1389 l 347 1563 l 174 1563 l 0 1389 l 0 1284 z m 521 1042 l 868 1042 l 868 1215 l 694 1215 l 868 1389 l 868 1563 l 694 1563 l 521 1389 z "},"”":{"ha":1006,"x_min":0,"x_max":0,"o":"m 0 1042 l 174 1042 l 347 1215 l 347 1563 l 0 1563 l 0 1389 l 174 1389 l 0 1215 l 0 1164 z m 521 1042 l 694 1042 l 868 1215 l 868 1563 l 521 1563 l 521 1389 l 694 1389 l 521 1215 z "},"„":{"ha":1006,"x_min":0,"x_max":0,"o":"m 0 0 l 174 0 l 347 174 l 347 521 l 0 521 l 0 347 l 174 347 l 0 174 l 0 122 z m 521 0 l 694 0 l 868 174 l 868 521 l 521 521 l 521 347 l 694 347 l 521 174 z "},"•":{"ha":659,"x_min":0,"x_max":0,"o":"m 260 521 l 434 521 l 521 608 l 521 781 l 434 868 l 260 868 l 174 781 l 174 608 z "},"…":{"ha":1874,"x_min":0,"x_max":0,"o":"m 0 0 l 347 0 l 347 347 l 0 347 l 0 243 z m 694 0 l 1042 0 l 1042 347 l 694 347 z m 1389 0 l 1736 0 l 1736 347 l 1389 347 z "},"‹":{"ha":1180,"x_min":0,"x_max":0,"o":"m 694 0 l 1042 0 l 1042 174 l 521 694 l 1042 1215 l 1042 1389 l 694 1389 l 0 694 z "},"›":{"ha":1180,"x_min":0,"x_max":0,"o":"m 0 0 l 347 0 l 1042 694 l 347 1389 l 0 1389 l 0 1215 l 521 694 l 0 174 l 0 122 z "},"€":{"ha":1874,"x_min":0,"x_max":0,"o":"m 347 0 l 1736 0 l 1736 174 l 1563 347 l 521 347 l 521 434 l 1042 434 l 1042 608 l 521 608 l 521 781 l 1042 781 l 1042 955 l 521 955 l 521 1042 l 1563 1042 l 1736 1215 l 1736 1389 l 347 1389 l 174 1215 l 174 955 l 0 955 l 0 781 l 174 781 l 174 608 l 0 608 l 0 556 l 0 434 l 174 434 l 174 174 z "}}}
